<?xml version="1.0" encoding="UTF-8" standalone="no"?>
<!-- Created with Inkscape (http://www.inkscape.org/) -->

<svg
   xmlns:dc="http://purl.org/dc/elements/1.1/"
   xmlns:cc="http://creativecommons.org/ns#"
   xmlns:rdf="http://www.w3.org/1999/02/22-rdf-syntax-ns#"
   xmlns:svg="http://www.w3.org/2000/svg"
   xmlns="http://www.w3.org/2000/svg"
   xmlns:sodipodi="http://sodipodi.sourceforge.net/DTD/sodipodi-0.dtd"
   xmlns:inkscape="http://www.inkscape.org/namespaces/inkscape"
   version="1.1"
   id="svg2"
   xml:space="preserve"
   width="443.84412"
   height="139.37953"
   viewBox="0 0 443.84412 139.37954"
   sodipodi:docname="SciFiLab_logo.svg"
   inkscape:export-filename="SciFiLab_logo.png"
   inkscape:export-xdpi="300.16"
   inkscape:export-ydpi="300.16"
   inkscape:version="0.92.5 (2060ec1f9f, 2020-04-08)"><metadata
     id="metadata8"><rdf:RDF><cc:Work
         rdf:about=""><dc:format>image/svg+xml</dc:format><dc:type
           rdf:resource="http://purl.org/dc/dcmitype/StillImage" /><dc:title /></cc:Work></rdf:RDF></metadata><defs
     id="defs6"><clipPath
   id="clipPath31"
   clipPathUnits="userSpaceOnUse"><path
     inkscape:connector-curvature="0"
     id="path29"
     d="M 0,87.884 H 405 V 0 H 0 Z" /></clipPath><clipPath
   id="clipPath138"
   clipPathUnits="userSpaceOnUse"><path
     inkscape:connector-curvature="0"
     id="path136"
     d="M 0,87.884 H 94.482 V 0 H 0 Z" /></clipPath>
	

	

	

	

		
	
		
	
		
	
		
	
	

	

	

	

		
	
		
	
		
	
		
	</defs><sodipodi:namedview
     pagecolor="#ffffff"
     bordercolor="#666666"
     borderopacity="1"
     objecttolerance="10"
     gridtolerance="10"
     guidetolerance="10"
     inkscape:pageopacity="0"
     inkscape:pageshadow="2"
     inkscape:window-width="1920"
     inkscape:window-height="1016"
     id="namedview4"
     showgrid="false"
     fit-margin-top="10"
     fit-margin-left="10"
     fit-margin-right="10"
     fit-margin-bottom="10"
     inkscape:zoom="2.0286449"
     inkscape:cx="155.11979"
     inkscape:cy="122.66481"
     inkscape:window-x="0"
     inkscape:window-y="1080"
     inkscape:window-maximized="1"
     inkscape:current-layer="g313" /><g
     id="g10"
     inkscape:groupmode="layer"
     inkscape:label="SciLifeLab"
     transform="matrix(1.3333333,0,0,-1.3333333,-104.96552,-136.98799)"><g
       id="g313"><path
         d="m 202.35457,-169.25474 c 0,1.053 -0.179,1.981 -0.536,2.786 -0.358,0.804 -0.989,1.542 -1.899,2.213 -0.91,0.67 -2.135,1.3 -3.676,1.888 -1.543,0.589 -3.5,1.192 -5.87,1.811 -2.488,0.64 -4.737,1.367 -6.751,2.182 -2.014,0.816 -3.729,1.755 -5.145,2.817 -1.416,1.063 -2.503,2.276 -3.263,3.637 -0.759,1.363 -1.139,2.92 -1.139,4.675 0,1.754 0.409,3.379 1.225,4.875 0.818,1.496 1.975,2.797 3.47,3.901 1.497,1.103 3.292,1.965 5.387,2.585 2.094,0.618 4.431,0.928 7.009,0.928 2.832,0 5.352,-0.382 7.562,-1.145 2.21,-0.764 4.068,-1.775 5.576,-3.034 1.507,-1.259 2.654,-2.714 3.436,-4.365 0.782,-1.651 1.174,-3.353 1.174,-5.107 h -6.664 c 0,1.258 -0.224,2.425 -0.673,3.498 -0.449,1.073 -1.134,2.001 -2.055,2.786 -0.921,0.784 -2.071,1.393 -3.453,1.826 -1.381,0.433 -3.015,0.65 -4.903,0.65 -1.772,0 -3.315,-0.185 -4.626,-0.557 -1.312,-0.371 -2.395,-0.882 -3.247,-1.533 -0.851,-0.65 -1.484,-1.418 -1.898,-2.305 -0.415,-0.888 -0.622,-1.858 -0.622,-2.91 0,-0.95 0.225,-1.816 0.673,-2.6 0.45,-0.785 1.145,-1.507 2.09,-2.168 0.943,-0.66 2.158,-1.268 3.642,-1.826 1.485,-0.557 3.263,-1.093 5.335,-1.61 2.854,-0.722 5.318,-1.522 7.389,-2.398 2.071,-0.878 3.781,-1.873 5.128,-2.987 1.346,-1.115 2.347,-2.364 3.004,-3.746 0.656,-1.383 0.984,-2.952 0.984,-4.705 0,-1.837 -0.415,-3.498 -1.244,-4.984 -0.828,-1.486 -2.008,-2.755 -3.538,-3.807 -1.532,-1.053 -3.373,-1.863 -5.526,-2.43 -2.152,-0.568 -4.552,-0.852 -7.199,-0.852 -1.542,0 -3.084,0.129 -4.627,0.387 -1.542,0.258 -3.02,0.645 -4.435,1.161 -1.416,0.516 -2.729,1.156 -3.938,1.92 -1.208,0.763 -2.261,1.65 -3.158,2.662 -0.898,1.01 -1.601,2.145 -2.106,3.404 -0.507,1.259 -0.76,2.642 -0.76,4.148 h 6.664 c 0,-1.547 0.339,-2.874 1.018,-3.977 0.679,-1.105 1.588,-2.018 2.728,-2.74 1.14,-0.723 2.451,-1.253 3.936,-1.594 1.485,-0.34 3.043,-0.511 4.678,-0.511 3.499,0 6.181,0.64 8.045,1.92 1.865,1.279 2.798,3.023 2.798,5.231"
         style="fill:#000000;fill-opacity:1;fill-rule:nonzero;stroke:none"
         id="path39"
         inkscape:connector-curvature="0" /><path
         d="m 228.66607,-176.59114 c 1.128,0 2.21,0.165 3.247,0.495 1.035,0.33 1.95,0.784 2.744,1.362 0.794,0.578 1.439,1.264 1.934,2.059 0.495,0.794 0.789,1.656 0.881,2.584 h 6.042 c -0.092,-1.485 -0.547,-2.904 -1.364,-4.256 -0.817,-1.352 -1.894,-2.538 -3.228,-3.559 -1.336,-1.022 -2.883,-1.837 -4.645,-2.446 -1.76,-0.608 -3.631,-0.913 -5.611,-0.913 -2.808,0 -5.253,0.449 -7.337,1.346 -2.083,0.898 -3.814,2.11 -5.195,3.638 -1.382,1.526 -2.413,3.301 -3.091,5.324 -0.68,2.022 -1.019,4.158 -1.019,6.408 v 1.3 c 0,2.249 0.339,4.385 1.019,6.408 0.678,2.021 1.709,3.796 3.091,5.323 1.381,1.528 3.107,2.74 5.178,3.638 2.072,0.898 4.511,1.347 7.32,1.347 2.187,0 4.172,-0.31 5.957,-0.929 1.783,-0.62 3.325,-1.471 4.626,-2.554 1.301,-1.083 2.319,-2.368 3.056,-3.854 0.736,-1.486 1.151,-3.085 1.243,-4.798 h -6.042 c -0.092,1.032 -0.364,1.996 -0.812,2.894 -0.449,0.898 -1.053,1.682 -1.812,2.353 -0.76,0.67 -1.663,1.202 -2.711,1.594 -1.047,0.392 -2.216,0.588 -3.505,0.588 -1.98,0 -3.62,-0.351 -4.92,-1.052 -1.301,-0.702 -2.348,-1.625 -3.143,-2.771 -0.794,-1.145 -1.351,-2.435 -1.674,-3.869 -0.323,-1.435 -0.483,-2.874 -0.483,-4.318 v -1.3 c 0,-1.486 0.16,-2.947 0.483,-4.38 0.323,-1.435 0.875,-2.72 1.658,-3.854 0.782,-1.136 1.83,-2.055 3.142,-2.755 1.312,-0.702 2.969,-1.053 4.971,-1.053"
         style="fill:#000000;fill-opacity:1;fill-rule:nonzero;stroke:none"
         id="path43"
         inkscape:connector-curvature="0" /><path
         inkscape:connector-curvature="0"
         id="path65"
         style="fill:#000000;fill-opacity:1;fill-rule:nonzero;stroke:none"
         d="m 254.83847,-180.64594 h -6.388 v 33.493 h 6.388 z" /><path
         d="m 255.39947,-138.71714 c 0,2.077 -1.684,3.761 -3.761,3.761 -2.076,0 -3.76,-1.684 -3.76,-3.761 0,-2.077 1.684,-3.76 3.76,-3.76 2.077,0 3.761,1.683 3.761,3.76"
         style="fill:#000000;fill-opacity:1;fill-rule:nonzero;stroke:none"
         id="path69"
         inkscape:connector-curvature="0" /><path
         d="m 311.14204,-175.51744 h 23.825 v -4.86 h -30.488 v 45.69 h 6.663 z"
         style="fill:#000000;fill-opacity:1;fill-rule:nonzero;stroke:none"
         id="path55"
         inkscape:connector-curvature="0" /><path
         d="m 350.65864,-176.01254 c 1.151,0 2.232,0.144 3.246,0.433 1.013,0.289 1.933,0.666 2.762,1.13 0.828,0.464 1.548,0.996 2.158,1.594 0.609,0.598 1.088,1.218 1.433,1.858 v 6.872 h -5.318 c -3.66,0 -6.479,-0.512 -8.459,-1.533 -1.98,-1.021 -2.969,-2.564 -2.969,-4.627 0,-0.806 0.149,-1.559 0.448,-2.26 0.3,-0.702 0.755,-1.306 1.365,-1.811 0.609,-0.506 1.357,-0.909 2.244,-1.207 0.885,-0.3 1.916,-0.449 3.09,-0.449 m 10.6,-4.365 c -0.23,0.412 -0.414,0.934 -0.552,1.563 -0.138,0.63 -0.254,1.285 -0.346,1.966 -0.598,-0.557 -1.272,-1.089 -2.019,-1.594 -0.748,-0.506 -1.567,-0.949 -2.452,-1.331 -0.886,-0.383 -1.847,-0.681 -2.883,-0.898 -1.036,-0.217 -2.13,-0.325 -3.281,-0.325 -1.91,0 -3.641,0.258 -5.195,0.774 -1.555,0.516 -2.879,1.217 -3.972,2.105 -1.092,0.887 -1.939,1.935 -2.538,3.142 -0.598,1.207 -0.897,2.502 -0.897,3.884 0,1.796 0.39,3.379 1.174,4.752 0.782,1.372 1.904,2.523 3.367,3.452 1.461,0.928 3.228,1.629 5.299,2.104 2.072,0.475 4.385,0.712 6.941,0.712 h 6.353 v 2.632 c 0,2.001 -0.667,3.595 -2.003,4.782 -1.335,1.187 -3.303,1.78 -5.904,1.78 -1.197,0 -2.291,-0.145 -3.281,-0.433 -0.989,-0.289 -1.835,-0.676 -2.537,-1.161 -0.702,-0.485 -1.249,-1.048 -1.64,-1.687 -0.392,-0.64 -0.587,-1.311 -0.587,-2.012 h -6.422 c 0,1.197 0.35,2.384 1.052,3.559 0.702,1.177 1.698,2.235 2.988,3.174 1.288,0.938 2.848,1.702 4.677,2.29 1.831,0.589 3.873,0.883 6.129,0.883 2.026,0 3.897,-0.232 5.612,-0.697 1.714,-0.464 3.181,-1.166 4.402,-2.105 1.22,-0.939 2.175,-2.11 2.865,-3.513 0.691,-1.404 1.037,-3.045 1.037,-4.922 v -15.571 c 0,-1.135 0.109,-2.327 0.328,-3.575 0.218,-1.249 0.546,-2.327 0.983,-3.235 v -0.495 z"
         style="fill:#000000;fill-opacity:1;fill-rule:nonzero;stroke:none"
         id="path59"
         inkscape:connector-curvature="0" /><path
         d="m 397.72024,-163.35244 c 0,1.672 -0.174,3.245 -0.519,4.721 -0.345,1.475 -0.903,2.771 -1.674,3.885 -0.771,1.114 -1.779,1.997 -3.021,2.646 -1.243,0.65 -2.763,0.976 -4.557,0.976 -1.175,0 -2.235,-0.135 -3.178,-0.403 -0.944,-0.268 -1.789,-0.64 -2.537,-1.114 -0.749,-0.476 -1.399,-1.032 -1.951,-1.672 -0.552,-0.64 -1.025,-1.331 -1.417,-2.074 v -14.487 c 0.416,-0.743 0.905,-1.434 1.468,-2.074 0.564,-0.64 1.22,-1.197 1.969,-1.672 0.747,-0.474 1.594,-0.846 2.537,-1.114 0.943,-0.268 2.003,-0.402 3.177,-0.402 1.726,0 3.199,0.32 4.42,0.959 1.22,0.639 2.22,1.507 3.004,2.601 0.782,1.093 1.357,2.378 1.726,3.853 0.368,1.475 0.553,3.05 0.553,4.721 z m 6.387,-0.65 c 0,-2.456 -0.323,-4.721 -0.967,-6.794 -0.645,-2.075 -1.588,-3.87 -2.831,-5.387 -1.243,-1.517 -2.763,-2.698 -4.558,-3.544 -1.795,-0.846 -3.844,-1.269 -6.145,-1.269 -2.464,0 -4.593,0.387 -6.389,1.161 -1.795,0.774 -3.314,1.882 -4.558,3.327 l -0.31,-3.869 h -5.869 v 45.69 h 6.386 v -15.88 c 1.244,1.382 2.74,2.445 4.49,3.188 1.749,0.743 3.808,1.114 6.18,1.114 2.348,0 4.425,-0.413 6.233,-1.238 1.806,-0.825 3.326,-1.986 4.557,-3.482 1.232,-1.496 2.169,-3.292 2.814,-5.387 0.644,-2.094 0.967,-4.421 0.967,-6.98 z"
         style="fill:#000000;fill-opacity:1;fill-rule:nonzero;stroke:none"
         id="path63"
         inkscape:connector-curvature="0" /><path
         d="m 300.89431,-138.44814 c 0,2.077 -1.684,3.76 -3.76,3.76 -2.077,0 -3.761,-1.683 -3.761,-3.76 0,-2.077 1.684,-3.761 3.761,-3.761 2.076,0 3.76,1.684 3.76,3.761"
         style="fill:#000000;fill-opacity:1;fill-rule:nonzero;stroke:none"
         id="path73"
         inkscape:connector-curvature="0" /><path
         inkscape:connector-curvature="0"
         id="path75"
         style="fill:#000000;fill-opacity:1;fill-rule:nonzero;stroke:none"
         d="m 300.32811,-180.37694 h -6.388 v 33.493 h 6.388 z" /><g
         aria-label="F"
         transform="matrix(1.5954703,0,0,-1.5954703,30.680476,617.40377)"
         style="font-style:normal;font-variant:normal;font-weight:900;font-stretch:normal;font-size:40px;line-height:1.25;font-family:Lato;-inkscape-font-specification:'Lato Heavy';letter-spacing:0px;word-spacing:0px;fill:#000000;fill-opacity:1;stroke:none"
         id="flowRoot47"><path
           d="m 161.95836,471.54781 v 3.16 h -13.76 v 10.02 h 11.76 v 3.16 h -11.76 v 12.32 h -3.9 v -28.66 z"
           style="font-style:normal;font-variant:normal;font-weight:normal;font-stretch:normal;font-family:Lato;-inkscape-font-specification:Lato;fill:#000000"
           id="path58"
           inkscape:connector-curvature="0" /></g></g><path
       style="fill:#91d342;fill-opacity:1;stroke-width:0.31335706"
       d="m 47.130859,296.98828 c -4.016706,0 -7.869784,1.21751 -11.144531,3.52149 -2.82896,1.99026 -5.047482,4.65805 -6.476562,7.76953 -1.545627,0.33137 -4.288073,0.98756 -7.191407,2.00976 -6.269674,2.20723 -10.073875,5.00212 -11.30664,8.30664 -0.469286,1.25812 -0.702934,3.22885 0.853515,5.47071 2.774968,3.99705 9.923647,6.60182 13.9375,7.79882 2.063133,0.61538 4.216803,1.13372 6.410157,1.57227 v 13.88086 l -13.78125,24.98047 C 1.9656829,402.1442 1.5039062,403.05015 1.5039062,405.5293 c 0,3.72082 2.4041877,7.53924 6.0039063,9.5332 1.5968253,0.88449 1.8957284,0.93208 6.5312495,1.09961 7.306573,0.26407 58.224475,0.27812 64.865235,0.0176 5.169586,-0.2028 5.946521,-0.3045 7.173828,-0.94336 3.650227,-1.90012 6.300781,-5.80585 6.300781,-9.28516 0,-1.76021 -0.191834,-2.33639 -1.99414,-5.98437 -2.06848,-4.18675 -4.691704,-9.0101 -19.660157,-36.1543 L 61.826172,347.6758 v -14.19336 c 2.271332,-0.44706 4.501192,-0.9808 6.634766,-1.61719 4.013719,-1.19714 11.162539,-3.80162 13.9375,-7.79882 1.556026,-2.24186 1.323075,-4.21244 0.853515,-5.47071 -1.232773,-3.3045 -5.037106,-6.0994 -11.306641,-8.30664 -2.903479,-1.0222 -5.645779,-1.67824 -7.191406,-2.00976 -1.42908,-3.11119 -3.647602,-5.77941 -6.476562,-7.76953 -3.274894,-2.30398 -7.129911,-3.52149 -11.146485,-3.52149 z m 0,4.75586 c 5.630427,0 10.787652,3.29262 13.201172,8.30859 -1.254706,1.30556 -4.833665,3.94922 -13.201172,3.94922 -5.887999,0 -9.350163,-1.31332 -11.21875,-2.41601 -0.947266,-0.55891 -1.579415,-1.1105 -1.980468,-1.53321 2.413386,-5.0161 7.568792,-8.30859 13.199218,-8.30859 z m -16.945312,11.25781 c 0.613893,0.70151 1.516287,1.54532 2.808594,2.37305 3.5054,2.24556 8.261679,3.38477 14.136718,3.38477 5.87504,0 10.631319,-1.13906 14.136719,-3.38477 1.292453,-0.82788 2.196654,-1.67167 2.810547,-2.37305 1.46556,0.32455 3.864864,0.91723 6.341797,1.79297 4.638573,1.64008 7.691733,3.63135 8.375,5.46289 0.048,0.12734 0.159326,0.42711 -0.304688,1.09571 -1.65076,2.37762 -6.965217,4.63387 -11.388672,5.95312 -6.157986,1.83639 -13.437329,2.89063 -19.970703,2.89063 -14.202799,0 -28.518202,-4.75425 -31.357421,-8.84375 -0.463873,-0.66846 -0.352272,-0.96625 -0.304688,-1.09375 0.683413,-1.8317 3.734619,-3.82282 8.373047,-5.46289 2.476933,-0.87575 4.878483,-1.47038 6.34375,-1.79493 z m -1.126953,5.67188 a 2.316794,2.316794 0 0 0 -2.316406,2.3164 2.316794,2.316794 0 0 0 2.316406,2.31836 2.316794,2.316794 0 0 0 2.316406,-2.31836 2.316794,2.316794 0 0 0 -2.316406,-2.3164 z m 36.144531,0 a 2.316794,2.316794 0 0 0 -2.316406,2.3164 2.316794,2.316794 0 0 0 2.316406,2.31836 2.316794,2.316794 0 0 0 2.318359,-2.31836 2.316794,2.316794 0 0 0 -2.318359,-2.3164 z m -18.072266,3.70703 a 2.316794,2.316794 0 0 0 -2.316406,2.31641 2.316794,2.316794 0 0 0 2.316406,2.31835 2.316794,2.316794 0 0 0 2.31836,-2.31835 2.316794,2.316794 0 0 0 -2.31836,-2.31641 z m -11.470703,11.66797 c 3.826192,0.58714 7.718484,0.90429 11.472656,0.90429 1.282542,0 2.583667,-0.0483 3.890626,-0.11914 0.0183,9.77846 0.10789,11.81689 0.484374,12.19336 0.695176,0.69515 1.583351,0.612 2.154297,-0.20312 0.369415,-0.52745 0.459791,-2.67945 0.478516,-12.22266 1.362659,-0.12988 2.725474,-0.2889 4.082031,-0.49023 v 16.09375 l 12.232422,22.70898 c 15.288186,28.37748 15.112836,28.02213 15.285156,30.4043 0.16152,2.23307 -0.486529,4.20672 -1.910156,5.82812 -1.512467,1.72262 -2.99836,2.30151 -6.753906,2.63282 -4.265173,0.37622 -45.129709,0.61418 -55.044922,0.32031 -6.823568,-0.20227 -7.642129,-0.28572 -8.8125,-0.89453 -1.890827,-0.98358 -3.155607,-2.14673 -4.1210938,-3.78906 -0.7264506,-1.23576 -0.8554687,-1.81117 -0.8554687,-3.80664 0,-2.76281 -1.4896511,0.23204 16.1953125,-32.5586 l 11.222656,-20.80859 z m 21.660156,23.39258 c -0.515039,0 -1.869072,0.5594 -3.066406,1.26757 -7.86992,4.65478 -12.701069,5.86439 -18.097656,4.52735 -1.36508,-0.33823 -2.642757,-0.55338 -2.837891,-0.47852 -0.370546,0.1422 -2.211088,3.44849 -11.050781,19.85742 -9.14639,16.97812 -9.169767,17.02726 -9.162109,18.88672 0.0081,1.95295 0.774859,3.78266 2.171875,5.17969 1.58608,1.58608 2.763433,2.07466 5.498047,2.2832 1.37876,0.1052 14.423061,0.17729 28.986328,0.16016 l 26.478515,-0.0293 2.138672,-1.08008 c 2.807094,-1.41714 3.658203,-2.43514 3.658203,-4.36914 0,-0.81505 -0.295876,-2.36274 -0.660156,-3.4414 C 80.5431,397.73586 75.786999,388.11653 69.197266,375.56445 61.043012,360.03221 59.347008,357.44141 57.320312,357.44141 Z M 34.1875,372.50391 c 0.781107,-0.008 1.558764,0.17249 2.271484,0.54297 1.14,0.59293 1.980281,1.59428 2.367188,2.82031 0.012,0.0372 0.02214,0.0754 0.0332,0.11328 l 0.01172,0.0391 c 0.0067,0.0235 0.01233,0.0469 0.01953,0.0703 0.0027,0.007 0.0059,0.0169 0.0059,0.0254 1.47e-4,10e-4 -6.4e-4,0.005 0,0.006 0.28436,0.88952 0.207135,1.95202 0.117188,3.18164 -0.112,1.5271 -0.240835,3.2579 0.328125,5.06055 0.568133,1.79731 1.6625,3.13239 2.626953,4.31055 0.784173,0.95818 1.461167,1.78495 1.744141,2.6914 2.4e-4,10e-4 0,0.005 0,0.006 0.0027,0.007 0.0045,0.009 0.0059,0.0156 v 0.004 c 0.008,0.0258 0.01854,0.0488 0.02734,0.0742 l 0.01563,0.0391 c 0.01333,0.0373 0.02498,0.0761 0.03711,0.11328 0.798627,2.52994 -0.608592,5.23796 -3.138672,6.03711 -1.225506,0.38705 -2.529935,0.27262 -3.669922,-0.32032 -1.140333,-0.59273 -1.982287,-1.59319 -2.36914,-2.81836 -0.012,-0.0376 -0.02214,-0.0774 -0.0332,-0.11523 l -0.0098,-0.0371 c -0.0067,-0.024 -0.01367,-0.0485 -0.01953,-0.0723 -0.0027,-0.007 -0.0059,-0.0154 -0.0059,-0.0234 -0.0011,-0.003 -0.002,-0.006 -0.002,-0.006 -0.334906,-1.05997 -0.240158,-2.21636 -0.140625,-3.43945 0.116267,-1.43148 0.247553,-3.05309 -0.304687,-4.80274 -0.567694,-1.79577 -1.657801,-3.12854 -2.621094,-4.30469 -0.785093,-0.95898 -1.464154,-1.78881 -1.748047,-2.69922 -0.0027,-0.007 -0.0059,-0.0117 -0.0059,-0.0176 v -0.004 c -0.0093,-0.0252 -0.01854,-0.0524 -0.02734,-0.0781 l -0.01563,-0.0371 c -0.012,-0.0368 -0.02356,-0.0723 -0.03516,-0.10938 v -0.002 c -0.29032,-0.91922 -0.299238,-1.8822 -0.03516,-2.78711 0.08747,-0.3012 0.205422,-0.59812 0.353515,-0.88281 0.428347,-0.82342 1.068956,-1.49039 1.853516,-1.94336 0.30216,-0.17444 0.625757,-0.316 0.966797,-0.42383 0.45944,-0.14507 0.92977,-0.21913 1.398437,-0.22461 z m 25.015625,1.16211 c 1.15448,-0.0511 2.260575,0.35012 3.113281,1.13086 0.852734,0.7807 1.351597,1.84725 1.402344,3.00195 0.0508,1.15501 -0.352413,2.26076 -1.132812,3.11328 -0.780722,0.85273 -1.844987,1.34946 -3,1.40039 -1.154816,0.0513 -2.260575,-0.35015 -3.113282,-1.13086 -0.853066,-0.78055 -1.351035,-1.84714 -1.402344,-3.00195 -0.05067,-1.15468 0.350473,-2.26076 1.13086,-3.11328 0.304467,-0.33246 0.65189,-0.61106 1.03125,-0.83008 0.594213,-0.34308 1.266223,-0.53915 1.970703,-0.57031 z m -13,4.3125 v 0.002 c 1.01716,-0.0695 2.058892,0.24069 2.890625,0.94141 0.04307,0.0365 0.08313,0.0749 0.125,0.11328 0.02427,0.0225 0.04853,0.0433 0.07227,0.0664 l 0.02539,0.0234 c 0.01413,0.0141 0.03039,0.0287 0.04492,0.043 0.0067,0.007 0.01029,0.012 0.01563,0.0176 0,4.4e-4 -4.27e-4,0.003 0,0.004 0.582667,0.5293 0.973928,1.33569 1.425781,2.26953 0.559414,1.15732 1.194082,2.47033 2.363282,3.54102 1.166373,1.06739 2.519217,1.57922 3.714843,2.03125 0.97456,0.36841 1.817557,0.68568 2.40625,1.22852 l 0.01563,0.0137 c 0.0053,0.005 0.01056,0.006 0.01563,0.01 0.0067,0.007 0.01375,0.0148 0.02148,0.0215 0.0053,0.005 0.0073,0.008 0.01367,0.0117 l 0.02734,0.0215 c 0.02413,0.0211 0.04631,0.0426 0.07031,0.0644 0.0011,4.6e-4 0.0059,-1.4e-4 0.0059,0 0.30024,0.2743 0.552158,0.58762 0.753907,0.92774 0.268773,0.45313 0.445897,0.95698 0.521484,1.48633 0.01893,0.13226 0.03044,0.26709 0.03711,0.40234 0.04787,1.08297 -0.328707,2.11856 -1.060547,2.91797 -0.04693,0.0513 -0.09552,0.10188 -0.144531,0.15039 -0.0067,0.007 -0.01065,0.009 -0.01758,0.0156 -0.04373,0.0428 -0.08788,0.0843 -0.132813,0.125 v 0.002 c -0.694973,0.62056 -1.575851,0.97784 -2.519531,1.01953 -0.941613,0.0413 -1.847683,-0.23608 -2.59375,-0.79102 -0.0027,-0.001 -0.0045,-0.005 -0.0059,-0.006 -0.0472,-0.0353 -0.09299,-0.0702 -0.138672,-0.10742 -0.0067,-0.007 -0.01766,-0.0137 -0.02539,-0.0195 -0.0528,-0.0439 -0.103001,-0.0899 -0.154297,-0.13672 -0.0244,-0.0223 -0.04982,-0.0456 -0.07422,-0.0684 l -0.02344,-0.0234 c -0.01493,-0.0142 -0.03039,-0.0284 -0.04492,-0.043 -0.0067,-0.007 -0.01029,-0.0102 -0.01563,-0.0156 -0.0011,-10e-4 -0.0026,-0.003 -0.0039,-0.004 -0.691027,-0.63328 -1.108674,-1.51408 -1.550781,-2.44727 -0.516253,-1.08959 -1.099228,-2.3244 -2.234375,-3.36328 -1.1648,-1.06698 -2.519424,-1.57869 -3.712891,-2.0293 -0.975933,-0.36848 -1.817283,-0.6873 -2.408203,-1.23242 -0.0067,-0.007 -0.0157,-0.012 -0.02344,-0.0176 -0.0152,-0.0133 -0.03154,-0.0239 -0.04687,-0.0371 l -0.02539,-0.0234 c -0.02467,-0.0216 -0.048,-0.0445 -0.07227,-0.0664 -0.299586,-0.27467 -0.554312,-0.58798 -0.755859,-0.92774 -0.3026,-0.51014 -0.488469,-1.08297 -0.544922,-1.68554 -0.0067,-0.0672 -0.0097,-0.13342 -0.01367,-0.20118 -0.04787,-1.08295 0.328387,-2.1203 1.060547,-2.91992 0.286867,-0.31333 0.611458,-0.56971 0.960938,-0.77148 0.54224,-0.31307 1.145552,-0.49151 1.755859,-0.5332 z"
       transform="matrix(0.75000002,0,0,-0.75000002,85.09621,112.50022)"
       id="path232"
       inkscape:connector-curvature="0" /><g
       id="g419"
       transform="matrix(0.10685006,0,0,-0.10685006,93.091328,-93.986535)">
</g><g
       id="g421"
       transform="matrix(0.10685006,0,0,-0.10685006,93.091328,-93.986535)">
</g><g
       id="g423"
       transform="matrix(0.10685006,0,0,-0.10685006,93.091328,-93.986535)">
</g><g
       id="g425"
       transform="matrix(0.10685006,0,0,-0.10685006,93.091328,-93.986535)">
</g><g
       id="g427"
       transform="matrix(0.10685006,0,0,-0.10685006,93.091328,-93.986535)">
</g><g
       id="g429"
       transform="matrix(0.10685006,0,0,-0.10685006,93.091328,-93.986535)">
</g><g
       id="g431"
       transform="matrix(0.10685006,0,0,-0.10685006,93.091328,-93.986535)">
</g><g
       id="g433"
       transform="matrix(0.10685006,0,0,-0.10685006,93.091328,-93.986535)">
</g><g
       id="g435"
       transform="matrix(0.10685006,0,0,-0.10685006,93.091328,-93.986535)">
</g><g
       id="g437"
       transform="matrix(0.10685006,0,0,-0.10685006,93.091328,-93.986535)">
</g><g
       id="g439"
       transform="matrix(0.10685006,0,0,-0.10685006,93.091328,-93.986535)">
</g><g
       id="g441"
       transform="matrix(0.10685006,0,0,-0.10685006,93.091328,-93.986535)">
</g><g
       id="g443"
       transform="matrix(0.10685006,0,0,-0.10685006,93.091328,-93.986535)">
</g><g
       id="g445"
       transform="matrix(0.10685006,0,0,-0.10685006,93.091328,-93.986535)">
</g><g
       id="g447"
       transform="matrix(0.10685006,0,0,-0.10685006,93.091328,-93.986535)">
</g><path
       id="path618"
       transform="matrix(0.75000002,0,0,-0.75000002,85.09621,112.50022)"
       d="m 47.130859,296.98828 c -4.016706,0 -7.869784,1.21751 -11.144531,3.52149 -2.82896,1.99026 -5.047482,4.65805 -6.476562,7.76953 -1.545627,0.33137 -4.288073,0.98756 -7.191407,2.00976 -6.269674,2.20723 -10.073875,5.00212 -11.30664,8.30664 -0.469286,1.25812 -0.702934,3.22885 0.853515,5.47071 2.774968,3.99705 9.923647,6.60182 13.9375,7.79882 2.063133,0.61538 4.216803,1.13372 6.410157,1.57227 v 13.88086 l -13.78125,24.98047 C 1.9656829,402.1442 1.5039062,403.05015 1.5039062,405.5293 c 0,3.72082 2.4041877,7.53924 6.0039063,9.5332 1.5968253,0.88449 1.8957284,0.93208 6.5312495,1.09961 7.306573,0.26407 58.224475,0.27812 64.865235,0.0176 5.169586,-0.2028 5.946521,-0.3045 7.173828,-0.94336 3.650227,-1.90012 6.300781,-5.80585 6.300781,-9.28516 0,-1.76021 -0.191834,-2.33639 -1.99414,-5.98437 -2.06848,-4.18675 -4.691704,-9.0101 -19.660157,-36.1543 L 61.826172,347.6758 v -14.19336 c 2.271332,-0.44706 4.501192,-0.9808 6.634766,-1.61719 4.013719,-1.19714 11.162539,-3.80162 13.9375,-7.79882 1.556026,-2.24186 1.323075,-4.21244 0.853515,-5.47071 -1.232773,-3.3045 -5.037106,-6.0994 -11.306641,-8.30664 -2.903479,-1.0222 -5.645779,-1.67824 -7.191406,-2.00976 -1.42908,-3.11119 -3.647602,-5.77941 -6.476562,-7.76953 -3.274894,-2.30398 -7.129911,-3.52149 -11.146485,-3.52149 z m 0,4.75586 c 5.630427,0 10.787652,3.29262 13.201172,8.30859 -1.254706,1.30556 -4.833665,3.94922 -13.201172,3.94922 -5.887999,0 -9.350163,-1.31332 -11.21875,-2.41601 -0.947266,-0.55891 -1.579415,-1.1105 -1.980468,-1.53321 2.413386,-5.0161 7.568792,-8.30859 13.199218,-8.30859 z m -16.945312,11.25781 c 0.613893,0.70151 1.516287,1.54532 2.808594,2.37305 3.5054,2.24556 8.261679,3.38477 14.136718,3.38477 5.87504,0 10.631319,-1.13906 14.136719,-3.38477 1.292453,-0.82788 2.196654,-1.67167 2.810547,-2.37305 1.46556,0.32455 3.864864,0.91723 6.341797,1.79297 4.638573,1.64008 7.691733,3.63135 8.375,5.46289 0.048,0.12734 0.159326,0.42711 -0.304688,1.09571 -1.65076,2.37762 -6.965217,4.63387 -11.388672,5.95312 -6.157986,1.83639 -13.437329,2.89063 -19.970703,2.89063 -14.202799,0 -28.518202,-4.75425 -31.357421,-8.84375 -0.463873,-0.66846 -0.352272,-0.96625 -0.304688,-1.09375 0.683413,-1.8317 3.734619,-3.82282 8.373047,-5.46289 2.476933,-0.87575 4.878483,-1.47038 6.34375,-1.79493 z m -1.126953,5.67188 a 2.316794,2.316794 0 0 0 -2.316406,2.3164 2.316794,2.316794 0 0 0 2.316406,2.31836 2.316794,2.316794 0 0 0 2.316406,-2.31836 2.316794,2.316794 0 0 0 -2.316406,-2.3164 z m 36.144531,0 a 2.316794,2.316794 0 0 0 -2.316406,2.3164 2.316794,2.316794 0 0 0 2.316406,2.31836 2.316794,2.316794 0 0 0 2.318359,-2.31836 2.316794,2.316794 0 0 0 -2.318359,-2.3164 z m -18.072266,3.70703 a 2.316794,2.316794 0 0 0 -2.316406,2.31641 2.316794,2.316794 0 0 0 2.316406,2.31835 2.316794,2.316794 0 0 0 2.31836,-2.31835 2.316794,2.316794 0 0 0 -2.31836,-2.31641 z m -11.470703,11.66797 c 3.826192,0.58714 7.718484,0.90429 11.472656,0.90429 1.282542,0 2.583667,-0.0483 3.890626,-0.11914 0.0183,9.77846 0.10789,11.81689 0.484374,12.19336 0.695176,0.69515 1.583351,0.612 2.154297,-0.20312 0.369415,-0.52745 0.459791,-2.67945 0.478516,-12.22266 1.362659,-0.12988 2.725474,-0.2889 4.082031,-0.49023 v 16.09375 l 12.232422,22.70898 c 15.288186,28.37748 15.112836,28.02213 15.285156,30.4043 0.16152,2.23307 -0.486529,4.20672 -1.910156,5.82812 -1.512467,1.72262 -2.99836,2.30151 -6.753906,2.63282 -4.265173,0.37622 -45.129709,0.61418 -55.044922,0.32031 -6.823568,-0.20227 -7.642129,-0.28572 -8.8125,-0.89453 -1.890827,-0.98358 -3.155607,-2.14673 -4.1210938,-3.78906 -0.7264506,-1.23576 -0.8554687,-1.81117 -0.8554687,-3.80664 0,-2.76281 -1.4896511,0.23204 16.1953125,-32.5586 l 11.222656,-20.80859 z m 21.660156,23.39258 c -0.515039,0 -1.869072,0.5594 -3.066406,1.26757 -7.86992,4.65478 -12.701069,5.86439 -18.097656,4.52735 -1.36508,-0.33823 -2.642757,-0.55338 -2.837891,-0.47852 -0.370546,0.1422 -2.211088,3.44849 -11.050781,19.85742 -9.14639,16.97812 -9.169767,17.02726 -9.162109,18.88672 0.0081,1.95295 0.774859,3.78266 2.171875,5.17969 1.58608,1.58608 2.763433,2.07466 5.498047,2.2832 1.37876,0.1052 14.423061,0.17729 28.986328,0.16016 l 26.478515,-0.0293 2.138672,-1.08008 c 2.807094,-1.41714 3.658203,-2.43514 3.658203,-4.36914 0,-0.81505 -0.295876,-2.36274 -0.660156,-3.4414 C 80.5431,397.73586 75.786999,388.11653 69.197266,375.56445 61.043012,360.03221 59.347008,357.44141 57.320312,357.44141 Z M 34.1875,372.50391 c 0.781107,-0.008 1.558764,0.17249 2.271484,0.54297 1.14,0.59293 1.980281,1.59428 2.367188,2.82031 0.012,0.0372 0.02214,0.0754 0.0332,0.11328 l 0.01172,0.0391 c 0.0067,0.0235 0.01233,0.0469 0.01953,0.0703 0.0027,0.007 0.0059,0.0169 0.0059,0.0254 1.47e-4,10e-4 -6.4e-4,0.005 0,0.006 0.28436,0.88952 0.207135,1.95202 0.117188,3.18164 -0.112,1.5271 -0.240835,3.2579 0.328125,5.06055 0.568133,1.79731 1.6625,3.13239 2.626953,4.31055 0.784173,0.95818 1.461167,1.78495 1.744141,2.6914 2.4e-4,10e-4 0,0.005 0,0.006 0.0027,0.007 0.0045,0.009 0.0059,0.0156 v 0.004 c 0.008,0.0258 0.01854,0.0488 0.02734,0.0742 l 0.01563,0.0391 c 0.01333,0.0373 0.02498,0.0761 0.03711,0.11328 0.798627,2.52994 -0.608592,5.23796 -3.138672,6.03711 -1.225506,0.38705 -2.529935,0.27262 -3.669922,-0.32032 -1.140333,-0.59273 -1.982287,-1.59319 -2.36914,-2.81836 -0.012,-0.0376 -0.02214,-0.0774 -0.0332,-0.11523 l -0.0098,-0.0371 c -0.0067,-0.024 -0.01367,-0.0485 -0.01953,-0.0723 -0.0027,-0.007 -0.0059,-0.0154 -0.0059,-0.0234 -0.0011,-0.003 -0.002,-0.006 -0.002,-0.006 -0.334906,-1.05997 -0.240158,-2.21636 -0.140625,-3.43945 0.116267,-1.43148 0.247553,-3.05309 -0.304687,-4.80274 -0.567694,-1.79577 -1.657801,-3.12854 -2.621094,-4.30469 -0.785093,-0.95898 -1.464154,-1.78881 -1.748047,-2.69922 -0.0027,-0.007 -0.0059,-0.0117 -0.0059,-0.0176 v -0.004 c -0.0093,-0.0252 -0.01854,-0.0524 -0.02734,-0.0781 l -0.01563,-0.0371 c -0.012,-0.0368 -0.02356,-0.0723 -0.03516,-0.10938 v -0.002 c -0.29032,-0.91922 -0.299238,-1.8822 -0.03516,-2.78711 0.08747,-0.3012 0.205422,-0.59812 0.353515,-0.88281 0.428347,-0.82342 1.068956,-1.49039 1.853516,-1.94336 0.30216,-0.17444 0.625757,-0.316 0.966797,-0.42383 0.45944,-0.14507 0.92977,-0.21913 1.398437,-0.22461 z m 25.015625,1.16211 c 1.15448,-0.0511 2.260575,0.35012 3.113281,1.13086 0.852734,0.7807 1.351597,1.84725 1.402344,3.00195 0.0508,1.15501 -0.352413,2.26076 -1.132812,3.11328 -0.780722,0.85273 -1.844987,1.34946 -3,1.40039 -1.154816,0.0513 -2.260575,-0.35015 -3.113282,-1.13086 -0.853066,-0.78055 -1.351035,-1.84714 -1.402344,-3.00195 -0.05067,-1.15468 0.350473,-2.26076 1.13086,-3.11328 0.304467,-0.33246 0.65189,-0.61106 1.03125,-0.83008 0.594213,-0.34308 1.266223,-0.53915 1.970703,-0.57031 z m -13,4.3125 v 0.002 c 1.01716,-0.0695 2.058892,0.24069 2.890625,0.94141 0.04307,0.0365 0.08313,0.0749 0.125,0.11328 0.02427,0.0225 0.04853,0.0433 0.07227,0.0664 l 0.02539,0.0234 c 0.01413,0.0141 0.03039,0.0287 0.04492,0.043 0.0067,0.007 0.01029,0.012 0.01563,0.0176 0,4.4e-4 -4.27e-4,0.003 0,0.004 0.582667,0.5293 0.973928,1.33569 1.425781,2.26953 0.559414,1.15732 1.194082,2.47033 2.363282,3.54102 1.166373,1.06739 2.519217,1.57922 3.714843,2.03125 0.97456,0.36841 1.817557,0.68568 2.40625,1.22852 l 0.01563,0.0137 c 0.0053,0.005 0.01056,0.006 0.01563,0.01 0.0067,0.007 0.01375,0.0148 0.02148,0.0215 0.0053,0.005 0.0073,0.008 0.01367,0.0117 l 0.02734,0.0215 c 0.02413,0.0211 0.04631,0.0426 0.07031,0.0644 0.0011,4.6e-4 0.0059,-1.4e-4 0.0059,0 0.30024,0.2743 0.552158,0.58762 0.753907,0.92774 0.268773,0.45313 0.445897,0.95698 0.521484,1.48633 0.01893,0.13226 0.03044,0.26709 0.03711,0.40234 0.04787,1.08297 -0.328707,2.11856 -1.060547,2.91797 -0.04693,0.0513 -0.09552,0.10188 -0.144531,0.15039 -0.0067,0.007 -0.01065,0.009 -0.01758,0.0156 -0.04373,0.0428 -0.08788,0.0843 -0.132813,0.125 v 0.002 c -0.694973,0.62056 -1.575851,0.97784 -2.519531,1.01953 -0.941613,0.0413 -1.847683,-0.23608 -2.59375,-0.79102 -0.0027,-0.001 -0.0045,-0.005 -0.0059,-0.006 -0.0472,-0.0353 -0.09299,-0.0702 -0.138672,-0.10742 -0.0067,-0.007 -0.01766,-0.0137 -0.02539,-0.0195 -0.0528,-0.0439 -0.103001,-0.0899 -0.154297,-0.13672 -0.0244,-0.0223 -0.04982,-0.0456 -0.07422,-0.0684 l -0.02344,-0.0234 c -0.01493,-0.0142 -0.03039,-0.0284 -0.04492,-0.043 -0.0067,-0.007 -0.01029,-0.0102 -0.01563,-0.0156 -0.0011,-10e-4 -0.0026,-0.003 -0.0039,-0.004 -0.691027,-0.63328 -1.108674,-1.51408 -1.550781,-2.44727 -0.516253,-1.08959 -1.099228,-2.3244 -2.234375,-3.36328 -1.1648,-1.06698 -2.519424,-1.57869 -3.712891,-2.0293 -0.975933,-0.36848 -1.817283,-0.6873 -2.408203,-1.23242 -0.0067,-0.007 -0.0157,-0.012 -0.02344,-0.0176 -0.0152,-0.0133 -0.03154,-0.0239 -0.04687,-0.0371 l -0.02539,-0.0234 c -0.02467,-0.0216 -0.048,-0.0445 -0.07227,-0.0664 -0.299586,-0.27467 -0.554312,-0.58798 -0.755859,-0.92774 -0.3026,-0.51014 -0.488469,-1.08297 -0.544922,-1.68554 -0.0067,-0.0672 -0.0097,-0.13342 -0.01367,-0.20118 -0.04787,-1.08295 0.328387,-2.1203 1.060547,-2.91992 0.286867,-0.31333 0.611458,-0.56971 0.960938,-0.77148 0.54224,-0.31307 1.145552,-0.49151 1.755859,-0.5332 z"
       style="fill:#91d342;fill-opacity:1;stroke-width:0.31335706"
       inkscape:connector-curvature="0" /></g></svg>