<?xml version="1.0" encoding="UTF-8" standalone="no"?>
<!-- Created with Inkscape (http://www.inkscape.org/) -->

<svg
   xmlns:dc="http://purl.org/dc/elements/1.1/"
   xmlns:cc="http://creativecommons.org/ns#"
   xmlns:rdf="http://www.w3.org/1999/02/22-rdf-syntax-ns#"
   xmlns:svg="http://www.w3.org/2000/svg"
   xmlns="http://www.w3.org/2000/svg"
   xmlns:sodipodi="http://sodipodi.sourceforge.net/DTD/sodipodi-0.dtd"
   xmlns:inkscape="http://www.inkscape.org/namespaces/inkscape"
   version="1.1"
   id="svg2"
   xml:space="preserve"
   width="150"
   height="150"
   viewBox="0 0 150 150"
   sodipodi:docname="SciFiLab_symbol.svg"
   inkscape:export-filename="SciFiLab_symbol.png"
   inkscape:export-xdpi="300.16"
   inkscape:export-ydpi="300.16"
   inkscape:version="0.92.5 (2060ec1f9f, 2020-04-08)"><metadata
     id="metadata8"><rdf:RDF><cc:Work
         rdf:about=""><dc:format>image/svg+xml</dc:format><dc:type
           rdf:resource="http://purl.org/dc/dcmitype/StillImage" /><dc:title /></cc:Work></rdf:RDF></metadata><defs
     id="defs6"><clipPath
   id="clipPath31"
   clipPathUnits="userSpaceOnUse"><path
     inkscape:connector-curvature="0"
     id="path29"
     d="M 0,87.884 H 405 V 0 H 0 Z" /></clipPath><clipPath
   id="clipPath138"
   clipPathUnits="userSpaceOnUse"><path
     inkscape:connector-curvature="0"
     id="path136"
     d="M 0,87.884 H 94.482 V 0 H 0 Z" /></clipPath>
	

	

	

	

		
	
		
	
		
	
		
	
	

	

	

	

		
	
		
	
		
	
		
	</defs><sodipodi:namedview
     pagecolor="#ffffff"
     bordercolor="#666666"
     borderopacity="1"
     objecttolerance="10"
     gridtolerance="10"
     guidetolerance="10"
     inkscape:pageopacity="0"
     inkscape:pageshadow="2"
     inkscape:window-width="1920"
     inkscape:window-height="1016"
     id="namedview4"
     showgrid="false"
     fit-margin-top="0"
     fit-margin-left="0"
     fit-margin-right="0"
     fit-margin-bottom="0"
     inkscape:zoom="1.4344686"
     inkscape:cx="-31.124354"
     inkscape:cy="6.5521157"
     inkscape:window-x="0"
     inkscape:window-y="1080"
     inkscape:window-maximized="1"
     inkscape:current-layer="g10" /><g
     id="g10"
     inkscape:groupmode="layer"
     inkscape:label="SciLifeLab"
     transform="matrix(1.3333333,0,0,-1.3333333,-113.46161,150.00029)"><g
       id="g419"
       transform="matrix(0.10685006,0,0,-0.10685006,93.091328,-93.986535)">
</g><g
       id="g421"
       transform="matrix(0.10685006,0,0,-0.10685006,93.091328,-93.986535)">
</g><g
       id="g423"
       transform="matrix(0.10685006,0,0,-0.10685006,93.091328,-93.986535)">
</g><g
       id="g425"
       transform="matrix(0.10685006,0,0,-0.10685006,93.091328,-93.986535)">
</g><g
       id="g427"
       transform="matrix(0.10685006,0,0,-0.10685006,93.091328,-93.986535)">
</g><g
       id="g429"
       transform="matrix(0.10685006,0,0,-0.10685006,93.091328,-93.986535)">
</g><g
       id="g431"
       transform="matrix(0.10685006,0,0,-0.10685006,93.091328,-93.986535)">
</g><g
       id="g433"
       transform="matrix(0.10685006,0,0,-0.10685006,93.091328,-93.986535)">
</g><g
       id="g435"
       transform="matrix(0.10685006,0,0,-0.10685006,93.091328,-93.986535)">
</g><g
       id="g437"
       transform="matrix(0.10685006,0,0,-0.10685006,93.091328,-93.986535)">
</g><g
       id="g439"
       transform="matrix(0.10685006,0,0,-0.10685006,93.091328,-93.986535)">
</g><g
       id="g441"
       transform="matrix(0.10685006,0,0,-0.10685006,93.091328,-93.986535)">
</g><g
       id="g443"
       transform="matrix(0.10685006,0,0,-0.10685006,93.091328,-93.986535)">
</g><g
       id="g445"
       transform="matrix(0.10685006,0,0,-0.10685006,93.091328,-93.986535)">
</g><g
       id="g447"
       transform="matrix(0.10685006,0,0,-0.10685006,93.091328,-93.986535)">
</g><path
       style="fill:#91d342;fill-opacity:1;stroke-width:0.28785509"
       d="m 141.52025,111.08224 c -3.68983,0 -7.22932,-1.11842 -10.23757,-3.2349 -2.59872,-1.82828 -4.63669,-4.27896 -5.94948,-7.13722 -1.41983,-0.3044 -3.93908,-0.907188 -6.60613,-1.846191 -5.75943,-2.027592 -9.25404,-4.595025 -10.38648,-7.630621 -0.4311,-1.155726 -0.64573,-2.966072 0.78405,-5.025481 2.54915,-3.671769 9.11603,-6.064547 12.80323,-7.164129 1.89523,-0.565298 3.87363,-1.041459 5.88847,-1.444318 V 64.848186 L 115.15667,41.900703 C 100.03075,14.484242 99.606556,13.652021 99.606556,11.374631 c 0,-3.4180078 2.208534,-6.9256729 5.515284,-8.7573582 1.46687,-0.8125072 1.74146,-0.8562248 5.99971,-1.0101198 6.71195,-0.24258 53.48599,-0.2554855 59.58631,-0.01615 4.74887,0.1862946 5.46258,0.2797182 6.59001,0.8665857 3.35315,1.7454832 5.788,5.3333513 5.788,8.5295052 0,1.616958 -0.17623,2.146246 -1.83185,5.497343 -1.90015,3.846019 -4.30989,8.276831 -18.06017,33.211952 l -8.17424,14.823465 v 13.03826 c 2.08648,0.410678 4.13488,0.900985 6.09481,1.485584 3.68707,1.099713 10.25408,3.492229 12.80323,7.164129 1.42939,2.059396 1.21539,3.869611 0.78404,5.025481 -1.13245,3.035556 -4.62717,5.603003 -10.38647,7.630608 -2.66718,0.939003 -5.1863,1.541654 -6.60615,1.846204 -1.31277,2.85799 -3.35075,5.30906 -5.94949,7.13721 -3.00836,2.11647 -6.54964,3.2349 -10.23933,3.2349 z m 0,-4.36881 c 5.1722,0 9.90972,-3.02466 12.12682,-7.632397 -1.1526,-1.199317 -4.44029,-3.627833 -12.12682,-3.627833 -5.40883,0 -8.58922,1.206447 -10.30574,2.219395 -0.87018,0.513421 -1.45087,1.02012 -1.81929,1.408438 2.21698,4.607857 6.95282,7.632397 12.12503,7.632397 z M 125.954,96.371825 c 0.56393,-0.644419 1.39288,-1.419559 2.58001,-2.179929 3.22013,-2.062809 7.58932,-3.109294 12.98624,-3.109294 5.39691,0 9.7661,1.046354 12.98623,3.109294 1.18726,0.760501 2.01788,1.535629 2.58181,2.179929 1.34629,-0.298142 3.55033,-0.842589 5.82569,-1.647062 4.26106,-1.506598 7.06576,-3.335812 7.69341,-5.018286 0.0441,-0.116988 0.14636,-0.392363 -0.27989,-1.006556 -1.51642,-2.184118 -6.39837,-4.256748 -10.46183,-5.468631 -5.65682,-1.686938 -12.34376,-2.655378 -18.34542,-2.655378 -13.04694,0 -26.1973,4.367329 -28.80547,8.124009 -0.42612,0.614062 -0.3236,0.887625 -0.27989,1.004744 0.6278,1.682631 3.43069,3.511701 7.69163,5.018299 2.27534,0.804486 4.48146,1.350719 5.82748,1.648861 z m -1.03524,-5.210285 a 2.1282461,2.1282461 0 0 1 -2.12788,-2.127895 2.1282461,2.1282461 0 0 1 2.12788,-2.12968 2.1282461,2.1282461 0 0 1 2.12789,2.12968 2.1282461,2.1282461 0 0 1 -2.12789,2.127895 z m 33.20298,0 a 2.1282461,2.1282461 0 0 1 -2.12789,-2.127895 2.1282461,2.1282461 0 0 1 2.12789,-2.12968 2.1282461,2.1282461 0 0 1 2.12968,2.12968 2.1282461,2.1282461 0 0 1 -2.12968,2.127895 z m -16.60149,-3.405349 a 2.1282461,2.1282461 0 0 1 -2.12789,-2.127881 2.1282461,2.1282461 0 0 1 2.12789,-2.129681 2.1282461,2.1282461 0 0 1 2.12968,2.129681 2.1282461,2.1282461 0 0 1 -2.12968,2.127881 z m -10.5372,-10.71839 c 3.51482,-0.539356 7.09034,-0.830695 10.53899,-0.830695 1.17816,0 2.3734,0.04438 3.57398,0.109439 0.0168,-8.982659 0.0991,-10.855195 0.44498,-11.201028 0.63859,-0.638576 1.45448,-0.562194 1.97896,0.18659 0.33935,0.484524 0.42238,2.461388 0.43958,11.227943 1.25175,0.119312 2.50366,0.265388 3.74982,0.450333 V 62.196396 l 11.23692,-20.860852 c 14.04398,-26.068036 13.88289,-25.741604 14.04119,-27.929907 0.14837,-2.051335 -0.44693,-3.8643636 -1.7547,-5.3538085 -1.38937,-1.5824273 -2.75434,-2.1142054 -6.20425,-2.4185527 -3.91806,-0.3456017 -41.45692,-0.564196 -50.5652,-0.2942412 -6.26825,0.1858074 -7.02019,0.2624667 -8.09531,0.8217297 -1.73695,0.9035333 -2.89881,1.9720223 -3.78571,3.4806934 -0.66733,1.1351903 -0.78584,1.6637723 -0.78584,3.4968443 0,2.537965 -1.36842,-0.213156 14.87727,29.908882 l 10.30932,19.115123 z m 19.8974,-21.488819 c -0.47312,0 -1.71696,-0.513874 -2.81685,-1.164413 -7.22943,-4.275959 -11.66743,-5.387126 -16.62482,-4.158899 -1.25399,0.310704 -2.42768,0.508345 -2.60693,0.439577 -0.34039,-0.13063 -2.03115,-3.167842 -10.15144,-18.241363 -8.40202,-15.596389 -8.4235,-15.641529 -8.41647,-17.34966 0.008,-1.794015 0.7118,-3.474816 1.99513,-4.758151 1.45699,-1.457001 2.53853,-1.9058187 5.0506,-2.0973875 1.26655,-0.096637 13.24927,-0.1628602 26.62733,-0.1471252 l 24.3236,0.026916 1.96464,0.9921803 c 2.57863,1.3018084 3.36048,2.2369604 3.36048,4.0135654 0,0.748719 -0.2718,2.170453 -0.60643,3.161328 -0.766,2.268267 -5.13503,11.104747 -11.18846,22.6353 -7.49064,14.26818 -9.04863,16.648132 -10.91038,16.648132 z m -21.2502,-13.836669 c 0.71754,0.0074 1.43191,-0.158451 2.08663,-0.498781 1.04722,-0.544675 1.81911,-1.464532 2.17454,-2.590785 0.0105,-0.03418 0.0204,-0.06927 0.0305,-0.104055 l 0.0105,-0.03587 c 0.007,-0.02156 0.0105,-0.04304 0.0178,-0.06459 0.003,-0.0062 0.005,-0.01548 0.005,-0.02332 1.3e-4,-10e-4 -6e-4,-0.0042 0,-0.0054 0.2612,-0.817128 0.19026,-1.79316 0.10766,-2.922708 -0.10294,-1.40282 -0.22124,-2.992763 0.30143,-4.648707 0.52189,-1.65104 1.52719,-2.877467 2.41317,-3.959745 0.72034,-0.8802 1.34225,-1.639685 1.60218,-2.472365 2.2e-4,-0.001 0,-0.0042 0,-0.0054 0.003,-0.0062 0.004,-0.0081 0.005,-0.01435 v -0.0035 c 0.008,-0.02366 0.0171,-0.04479 0.0251,-0.06817 l 0.0143,-0.03588 c 0.0118,-0.0343 0.023,-0.06989 0.034,-0.104055 0.73362,-2.324046 -0.55908,-4.81168 -2.88325,-5.545793 -1.12578,-0.355549 -2.32404,-0.250433 -3.37125,0.294252 -1.04754,0.544493 -1.82096,1.463531 -2.17633,2.588994 -0.0105,0.03453 -0.0204,0.07106 -0.0305,0.105854 l -0.009,0.03409 c -0.007,0.02204 -0.0131,0.04458 -0.0179,0.06637 -0.003,0.0062 -0.005,0.01418 -0.005,0.02153 -0.001,0.0025 -0.001,0.0054 -0.001,0.0054 -0.30765,0.973706 -0.22061,2.035985 -0.1292,3.159536 0.10687,1.314982 0.22741,2.804621 -0.27988,4.411879 -0.5215,1.649625 -1.52288,2.87393 -2.40779,3.954361 -0.7212,0.880935 -1.34499,1.643231 -1.60578,2.479549 -0.003,0.0062 -0.005,0.01077 -0.005,0.01615 v 0.0035 c -0.009,0.02315 -0.0171,0.04812 -0.0251,0.07177 l -0.0143,0.03409 c -0.0105,0.03381 -0.0217,0.06642 -0.0323,0.100483 v 0.0018 c -0.2667,0.84441 -0.27488,1.72902 -0.0323,2.560285 0.0803,0.276688 0.1887,0.549443 0.32474,0.810964 0.39348,0.756409 0.98197,1.369097 1.70267,1.785204 0.27757,0.160244 0.57484,0.290283 0.88812,0.389337 0.42205,0.133265 0.85411,0.201298 1.28463,0.206332 z m 22.97979,-1.067533 c 1.06052,0.04691 2.07659,-0.321626 2.8599,-1.038827 0.78334,-0.717164 1.24161,-1.696915 1.28822,-2.757643 0.0466,-1.061011 -0.32373,-2.076772 -1.04061,-2.859912 -0.71719,-0.783331 -1.69485,-1.239636 -2.75587,-1.286421 -1.06082,-0.04715 -2.07659,0.321654 -2.8599,1.038827 -0.78365,0.717026 -1.2411,1.696814 -1.28822,2.757642 -0.0465,1.060708 0.32196,2.076772 1.03883,2.859911 0.2797,0.305403 0.59883,0.56133 0.94731,0.762526 0.54586,0.31516 1.16319,0.495272 1.81034,0.523897 z m -11.94203,-3.961535 v -0.0018 c 0.93438,0.06381 1.89134,-0.221101 2.65539,-0.864794 0.0395,-0.03356 0.0764,-0.06879 0.11475,-0.104068 0.0223,-0.02069 0.0447,-0.03982 0.0664,-0.061 l 0.0232,-0.02153 c 0.0131,-0.013 0.028,-0.02636 0.0412,-0.03948 0.007,-0.0062 0.009,-0.01103 0.0143,-0.01615 0,-4.05e-4 -3.9e-4,-0.0024 0,-0.0035 0.53524,-0.486224 0.89466,-1.226988 1.30975,-2.084829 0.51388,-1.063133 1.09691,-2.269287 2.17095,-3.252841 1.07145,-0.980522 2.31418,-1.450697 3.41252,-1.86594 0.89524,-0.338428 1.66963,-0.629877 2.21042,-1.12854 l 0.0143,-0.0126 c 0.005,-0.0049 0.009,-0.0053 0.0143,-0.0089 0.007,-0.0062 0.0131,-0.01361 0.0197,-0.01975 0.005,-0.0049 0.007,-0.0071 0.0131,-0.01077 l 0.0251,-0.01973 c 0.0222,-0.01935 0.0425,-0.03913 0.0646,-0.0592 0.001,-4.23e-4 0.005,1.27e-4 0.005,0 0.27581,-0.251977 0.50723,-0.539798 0.69256,-0.852238 0.24689,-0.416253 0.4096,-0.879099 0.47903,-1.365368 0.0173,-0.121492 0.028,-0.245354 0.034,-0.369597 0.044,-0.994834 -0.30197,-1.946145 -0.97425,-2.680496 -0.0431,-0.04715 -0.0877,-0.09359 -0.13275,-0.138152 -0.007,-0.0062 -0.009,-0.0083 -0.0162,-0.01435 -0.0402,-0.03931 -0.0807,-0.07747 -0.12198,-0.114822 V 21.571 c -0.63842,-0.570057 -1.44761,-0.89826 -2.31449,-0.936558 -0.86498,-0.03797 -1.69731,0.216867 -2.38266,0.726646 -0.003,0.001 -0.004,0.0042 -0.005,0.0054 -0.0433,0.03246 -0.0853,0.06449 -0.12736,0.09868 -0.007,0.0062 -0.0162,0.0126 -0.0232,0.01795 -0.0485,0.0403 -0.0945,0.08255 -0.14173,0.125588 -0.0225,0.02046 -0.0458,0.04185 -0.0683,0.0628 l -0.0215,0.02152 c -0.0137,0.013 -0.028,0.02613 -0.0412,0.03948 -0.007,0.0062 -0.009,0.0093 -0.0143,0.01435 -0.001,9.91e-4 -0.003,0.0024 -0.004,0.0035 -0.6348,0.581742 -1.01845,1.39086 -1.42459,2.248104 -0.47424,1.000915 -1.00976,2.135233 -2.05253,3.089564 -1.07,0.980147 -2.31439,1.450213 -3.41073,1.86415 -0.8965,0.338491 -1.66938,0.631366 -2.21222,1.132122 -0.007,0.0062 -0.0144,0.01103 -0.0215,0.01615 -0.0139,0.01221 -0.029,0.02197 -0.0431,0.03408 l -0.0232,0.02153 c -0.0227,0.01984 -0.0441,0.04093 -0.0664,0.061 -0.27521,0.252316 -0.50921,0.540127 -0.69434,0.852237 -0.27798,0.468623 -0.44872,0.994834 -0.50058,1.548366 -0.007,0.06174 -0.009,0.122555 -0.0131,0.184807 -0.044,0.994815 0.30166,1.947743 0.97424,2.682287 0.26352,0.28783 0.5617,0.523345 0.88274,0.708696 0.49811,0.28759 1.05232,0.451508 1.61295,0.489806 z"
       id="path635"
       inkscape:connector-curvature="0" /></g></svg>