<?xml version="1.0" encoding="UTF-8" standalone="no"?>
<!-- Created with Inkscape (http://www.inkscape.org/) -->

<svg
   xmlns:dc="http://purl.org/dc/elements/1.1/"
   xmlns:cc="http://creativecommons.org/ns#"
   xmlns:rdf="http://www.w3.org/1999/02/22-rdf-syntax-ns#"
   xmlns:svg="http://www.w3.org/2000/svg"
   xmlns="http://www.w3.org/2000/svg"
   xmlns:sodipodi="http://sodipodi.sourceforge.net/DTD/sodipodi-0.dtd"
   xmlns:inkscape="http://www.inkscape.org/namespaces/inkscape"
   version="1.1"
   id="svg2"
   xml:space="preserve"
   width="150"
   height="150"
   viewBox="0 0 150 150"
   sodipodi:docname="SciLifeLab.svg"
   inkscape:export-filename="SciFiLab.png"
   inkscape:export-xdpi="300.16"
   inkscape:export-ydpi="300.16"
   inkscape:version="0.92.3 (2405546, 2018-03-11)"><metadata
     id="metadata8"><rdf:RDF><cc:Work
         rdf:about=""><dc:format>image/svg+xml</dc:format><dc:type
           rdf:resource="http://purl.org/dc/dcmitype/StillImage" /><dc:title></dc:title></cc:Work></rdf:RDF></metadata><defs
     id="defs6" /><sodipodi:namedview
     pagecolor="#ffffff"
     bordercolor="#666666"
     borderopacity="1"
     objecttolerance="10"
     gridtolerance="10"
     guidetolerance="10"
     inkscape:pageopacity="0"
     inkscape:pageshadow="2"
     inkscape:window-width="1920"
     inkscape:window-height="1012"
     id="namedview4"
     showgrid="false"
     fit-margin-top="0"
     fit-margin-left="0"
     fit-margin-right="0"
     fit-margin-bottom="0"
     inkscape:zoom="2.8689373"
     inkscape:cx="25.20254"
     inkscape:cy="49.762734"
     inkscape:window-x="1920"
     inkscape:window-y="312"
     inkscape:window-maximized="1"
     inkscape:current-layer="g10" /><g
     id="g10"
     inkscape:groupmode="layer"
     inkscape:label="SciLifeLab"
     transform="matrix(1.3333333,0,0,-1.3333333,-113.46161,150.00029)"><g
       id="g34"
       transform="matrix(1.2330362,0,0,1.2330362,103.20429,27.656669)"><path
         d="m 0.67813855,27.338418 c 0.36042325,0.918421 1.03856185,1.396989 1.95698255,1.396989 0.3177153,0 0.5579975,-0.04031 0.7982796,-0.120141 0.2789988,-0.07943 0.9978496,-0.358427 2.195269,-0.918022 2.394839,-0.997849 4.8283943,-1.51713 7.3840863,-1.51713 2.793979,0 5.227535,0.639023 7.302663,1.91627 2.036411,1.237733 3.592258,3.033862 4.63082,5.349272 0.718851,1.635675 1.077278,3.351976 1.077278,5.188818 0,2.753266 -0.79828,5.148105 -2.394839,7.184517 -1.435706,1.875558 -3.791828,3.551546 -6.984947,5.068676 l -4.190968,2.034815 c -4.2703967,1.995699 -6.3862369,4.710249 -6.3862369,7.982796 0,0.838593 0.1608534,1.677585 0.4785687,2.51498 0.2809944,0.838593 0.7188508,1.557444 1.2381317,2.195269 1.2768483,1.476419 3.0342605,2.235583 5.2682465,2.235583 1.51713,0 2.873408,-0.360025 4.03211,-1.117991 1.156708,-0.757567 2.233986,-1.875558 3.193119,-3.433002 0.557997,-0.837395 0.99785,-1.796129 1.396989,-2.753665 0.358428,-1.038163 0.836997,-2.474268 1.356277,-4.349826 h 0.678139 l -0.19957,11.81374 h -0.678138 c -0.238287,-1.036965 -0.718851,-1.51713 -1.39699,-1.51713 -0.278999,0 -0.59871,0.04031 -0.957137,0.160454 -0.360423,0.07943 -1.038562,0.358827 -1.995699,0.757967 -1.358273,0.559594 -2.394839,0.918021 -3.193119,1.117591 -0.798279,0.159257 -1.637271,0.279398 -2.594409,0.279398 -2.8734071,0 -5.3496706,-0.99785 -7.4635151,-2.91412 C 4.070827,64.817248 3.1136897,63.499687 2.4355512,61.984153 1.7961292,60.42671 1.4764182,58.870464 1.4764182,57.233591 c 0,-2.674237 0.8389919,-4.948934 2.5556923,-6.824492 0.5987097,-0.679736 1.3969893,-1.317561 2.4335554,-1.9957 0.9978496,-0.679735 2.394839,-1.478014 4.3111091,-2.394838 2.11584,-1.078875 3.7124,-1.9957 4.748966,-2.71455 1.038562,-0.678139 1.836841,-1.437303 2.435551,-2.195269 0.557997,-0.759164 0.997849,-1.675989 1.31756,-2.71455 0.319711,-1.077279 0.478569,-2.075128 0.478569,-3.113291 0,-2.354526 -0.757567,-4.270796 -2.235981,-5.787527 -1.476418,-1.517131 -3.351976,-2.31541 -5.626674,-2.31541 -3.2725476,0 -5.9870975,1.677584 -8.14365,4.989247 -1.1567072,1.836443 -2.1545567,4.271994 -2.99354862,7.4244 H 0.07942882 L 0,27.338418 Z"
         style="fill:#000000;fill-opacity:1;fill-rule:evenodd;stroke:none;stroke-width:0.39913982"
         id="path16"
         inkscape:connector-curvature="0" /><path
         d="m 46.499789,29.733257 c -1.276848,-1.19742 -2.834691,-1.836443 -4.710249,-1.836443 -2.31541,0 -4.311109,0.918022 -6.025814,2.673838 -1.079274,1.158304 -1.91627,2.555293 -2.555692,4.231281 -0.637426,1.676388 -0.957137,3.433401 -0.957137,5.188818 0,1.91627 0.358427,3.871656 1.036566,5.867355 0.439852,1.317162 0.997849,2.394839 1.596559,3.272548 0.59871,0.838592 1.317561,1.557443 2.195269,2.156153 0.99785,0.637825 2.077124,0.957536 3.233831,0.957536 0.877708,0 1.637271,-0.199569 2.235981,-0.678537 0.317715,-0.239883 0.59871,-0.518882 0.757567,-0.838593 0.158858,-0.318114 0.358428,-0.916824 0.639422,-1.755816 0.637427,-1.915871 1.555847,-2.834292 2.873408,-2.834292 0.59871,0 1.077278,0.19957 1.51713,0.639023 0.39914,0.39914 0.59871,0.957536 0.59871,1.596559 0,0.957537 -0.480564,1.796129 -1.478414,2.594409 -1.635276,1.277247 -3.871257,1.91627 -6.744664,1.91627 -2.075128,0 -3.991399,-0.319711 -5.746815,-1.077278 -1.757413,-0.718851 -3.233831,-1.796129 -4.431251,-3.154003 -1.077278,-1.236535 -1.91627,-2.71455 -2.51498,-4.390538 -0.637426,-1.7167 -0.957137,-3.431804 -0.957137,-5.188818 0,-3.551945 1.117991,-6.506378 3.351976,-8.860904 2.274698,-2.354126 5.388388,-3.551546 9.420498,-3.551546 2.474268,0 4.429255,0.478569 5.866956,1.436105 1.437702,0.918022 2.51498,2.394839 3.193119,4.51028 l -0.59871,0.19957 c -0.59871,-1.396989 -1.156707,-2.435152 -1.796129,-3.072977 z"
         style="fill:#000000;fill-opacity:1;fill-rule:evenodd;stroke:none;stroke-width:0.39913982"
         id="path18"
         inkscape:connector-curvature="0" /><path
         d="m 49.053486,51.207378 c 0.879704,-0.04071 1.557842,-0.19957 2.036411,-0.439852 0.478569,-0.239883 0.877708,-0.639023 1.197419,-1.197419 0.358428,-0.518882 0.557998,-1.19742 0.678139,-1.995699 0.120141,-0.838593 0.160853,-2.235583 0.160853,-4.270397 V 35.95904 c 0,-1.715104 -0.04071,-3.032665 -0.160853,-3.951085 -0.07943,-0.918022 -0.238286,-1.59656 -0.437856,-2.036013 -0.319711,-0.717254 -0.759563,-1.197419 -1.238132,-1.476418 -0.519281,-0.279398 -1.356277,-0.519281 -2.553697,-0.678538 v -0.639022 h 13.130902 v 0.639022 c -1.51713,0.279398 -2.51498,0.718851 -3.072977,1.238132 -0.439852,0.39914 -0.759563,0.916824 -0.918421,1.515534 -0.158858,0.639023 -0.240282,1.636872 -0.240282,2.954433 l -0.03872,2.274698 v 17.083583 l -8.542789,-1.038162 z"
         style="fill:#000000;fill-opacity:1;fill-rule:evenodd;stroke:none;stroke-width:0.39913982"
         id="path20"
         inkscape:connector-curvature="0" /><path
         d="m 55.201436,57.71216 c 1.555847,0 2.793979,1.237732 2.793979,2.834292 0,1.51713 -1.238132,2.753665 -2.793979,2.753665 -1.51713,0 -2.755262,-1.236535 -2.755262,-2.753665 0,-1.59656 1.238132,-2.834292 2.755262,-2.834292 z"
         style="fill:#000000;fill-opacity:1;fill-rule:evenodd;stroke:none;stroke-width:0.39913982"
         id="path32"
         inkscape:connector-curvature="0" /></g><path
       inkscape:connector-curvature="0"
       id="path14"
       style="fill:#7fcb28;fill-opacity:1;fill-rule:evenodd;stroke:none;stroke-width:0.43670347"
       d="m 158.1265,77.336374 c 0.0445,0 4.32467,4.324237 4.28013,4.324237 -5.9824,1.310111 -13.71161,-0.523607 -18.60445,-6.855808 -5.45878,-7.031799 -6.06929,-16.901734 -6.2431,-19.172155 0,-0.0428 -2.62023,0 -2.62023,0 l -3.58271,-3.754776 h 5.76623 c 0,0 -3.18837,-32.841411 -3.45126,-34.588225 -0.26072,-1.746814 -1.65991,-17.55504266 -15.50298,-12.8386453 -0.0424,0.044543 -4.19104,-3.75608644 -4.19104,-3.79888337 6.63746,-2.35907223 22.96929,0.78650297 24.8921,24.54229867 1.39701,17.337127 2.70712,26.683455 2.70712,26.683455 0,0 8.68952,0.0428 8.64716,0 l 6.59292,3.449081 c 0.39434,0.3498 -14.84792,0.174245 -14.84792,0.174245 0,0 0.56816,6.113848 0.74196,7.468066 0.65505,4.498482 1.13631,19.389198 15.41607,14.367108 z"
       sodipodi:nodetypes="cccccccccccccccccc" /><path
       inkscape:connector-curvature="0"
       id="path24"
       style="fill:#7fcb28;fill-opacity:1;fill-rule:evenodd;stroke:none;stroke-width:0.43670347"
       d="m 154.69846,54.671411 c 0.96032,-0.04454 1.70227,-0.218352 2.22588,-0.481247 0.5236,-0.262459 0.96031,-0.699163 1.35465,-1.31011 0.34981,-0.567715 0.61051,-1.310111 0.69742,-2.183518 0.13144,-0.917514 0.17598,-2.445977 0.17598,-4.67229 v -8.036217 c 0,-1.876515 -0.0445,-3.318074 -0.13144,-4.322928 -0.0869,-1.004418 -0.26289,-1.746814 -0.52361,-2.227625 -0.3498,-0.784756 -0.7865,-1.31011 -1.35465,-1.615366 -0.56815,-0.305692 -1.52847,-0.568151 -2.79403,-0.742396 v -0.699161 h 14.36667 v 0.699161 c -1.61536,0.305692 -2.75166,0.786503 -3.36218,1.354654 -0.48124,0.436704 -0.82886,1.003108 -1.00485,1.658164 -0.17381,0.699162 -0.26072,1.79092 -0.26072,3.232479 l -0.0445,2.488773 v 18.691344 l -9.34458,-1.135864 z" /><path
       inkscape:connector-curvature="0"
       id="path34"
       style="fill:#7fcb28;fill-opacity:1;fill-rule:evenodd;stroke:none;stroke-width:0.48951846"
       d="m 161.59663,61.788368 c 1.86066,0 3.42663,1.517995 3.42663,3.47607 0,1.860659 -1.56597,3.377188 -3.42663,3.377188 -1.90814,0 -3.42664,-1.516529 -3.42664,-3.377188 0,-1.958075 1.5185,-3.47607 3.42664,-3.47607 z" /></g></svg>