<?xml version="1.0" encoding="UTF-8" standalone="no"?>
<!-- Created with Inkscape (http://www.inkscape.org/) -->

<svg
   xmlns:dc="http://purl.org/dc/elements/1.1/"
   xmlns:cc="http://creativecommons.org/ns#"
   xmlns:rdf="http://www.w3.org/1999/02/22-rdf-syntax-ns#"
   xmlns:svg="http://www.w3.org/2000/svg"
   xmlns="http://www.w3.org/2000/svg"
   xmlns:sodipodi="http://sodipodi.sourceforge.net/DTD/sodipodi-0.dtd"
   xmlns:inkscape="http://www.inkscape.org/namespaces/inkscape"
   version="1.1"
   id="svg2"
   xml:space="preserve"
   width="150"
   height="150"
   viewBox="0 0 150 150"
   sodipodi:docname="SciFiLab_logo_square.svg"
   inkscape:export-filename="SciFiLab_logo_square.png"
   inkscape:export-xdpi="300.16"
   inkscape:export-ydpi="300.16"
   inkscape:version="0.92.5 (2060ec1f9f, 2020-04-08)"><metadata
     id="metadata8"><rdf:RDF><cc:Work
         rdf:about=""><dc:format>image/svg+xml</dc:format><dc:type
           rdf:resource="http://purl.org/dc/dcmitype/StillImage" /><dc:title /></cc:Work></rdf:RDF></metadata><defs
     id="defs6"><clipPath
   id="clipPath31"
   clipPathUnits="userSpaceOnUse"><path
     inkscape:connector-curvature="0"
     id="path29"
     d="M 0,87.884 H 405 V 0 H 0 Z" /></clipPath><clipPath
   id="clipPath138"
   clipPathUnits="userSpaceOnUse"><path
     inkscape:connector-curvature="0"
     id="path136"
     d="M 0,87.884 H 94.482 V 0 H 0 Z" /></clipPath>
	

	

	

	

		
	
		
	
		
	
		
	
	

	

	

	

		
	
		
	
		
	
		
	</defs><sodipodi:namedview
     pagecolor="#ffffff"
     bordercolor="#666666"
     borderopacity="1"
     objecttolerance="10"
     gridtolerance="10"
     guidetolerance="10"
     inkscape:pageopacity="0"
     inkscape:pageshadow="2"
     inkscape:window-width="1920"
     inkscape:window-height="1016"
     id="namedview4"
     showgrid="false"
     fit-margin-top="0"
     fit-margin-left="0"
     fit-margin-right="0"
     fit-margin-bottom="0"
     inkscape:zoom="2.8689373"
     inkscape:cx="117.18573"
     inkscape:cy="-15.164926"
     inkscape:window-x="0"
     inkscape:window-y="1080"
     inkscape:window-maximized="1"
     inkscape:current-layer="g10" /><g
     id="g10"
     inkscape:groupmode="layer"
     inkscape:label="SciLifeLab"
     transform="matrix(1.3333333,0,0,-1.3333333,-113.46161,150.00029)"><g
       id="g419"
       transform="matrix(0.10685006,0,0,-0.10685006,93.091328,-93.986535)">
</g><g
       id="g421"
       transform="matrix(0.10685006,0,0,-0.10685006,93.091328,-93.986535)">
</g><g
       id="g423"
       transform="matrix(0.10685006,0,0,-0.10685006,93.091328,-93.986535)">
</g><g
       id="g425"
       transform="matrix(0.10685006,0,0,-0.10685006,93.091328,-93.986535)">
</g><g
       id="g427"
       transform="matrix(0.10685006,0,0,-0.10685006,93.091328,-93.986535)">
</g><g
       id="g429"
       transform="matrix(0.10685006,0,0,-0.10685006,93.091328,-93.986535)">
</g><g
       id="g431"
       transform="matrix(0.10685006,0,0,-0.10685006,93.091328,-93.986535)">
</g><g
       id="g433"
       transform="matrix(0.10685006,0,0,-0.10685006,93.091328,-93.986535)">
</g><g
       id="g435"
       transform="matrix(0.10685006,0,0,-0.10685006,93.091328,-93.986535)">
</g><g
       id="g437"
       transform="matrix(0.10685006,0,0,-0.10685006,93.091328,-93.986535)">
</g><g
       id="g439"
       transform="matrix(0.10685006,0,0,-0.10685006,93.091328,-93.986535)">
</g><g
       id="g441"
       transform="matrix(0.10685006,0,0,-0.10685006,93.091328,-93.986535)">
</g><g
       id="g443"
       transform="matrix(0.10685006,0,0,-0.10685006,93.091328,-93.986535)">
</g><g
       id="g445"
       transform="matrix(0.10685006,0,0,-0.10685006,93.091328,-93.986535)">
</g><g
       id="g447"
       transform="matrix(0.10685006,0,0,-0.10685006,93.091328,-93.986535)">
</g><path
       d="m 100.60566,7.8840088 c 0,0.4991666 -0.0849,0.939078 -0.25409,1.3206822 -0.1697,0.3811301 -0.468824,0.7309734 -0.900203,1.049056 -0.431378,0.317608 -1.01208,0.616255 -1.74258,0.894992 -0.731447,0.279211 -1.659148,0.565059 -2.782629,0.858491 -1.179417,0.303387 -2.245539,0.648016 -3.20026,1.03436 -0.954722,0.386819 -1.767704,0.831945 -2.438948,1.335378 -0.671244,0.503907 -1.186529,1.07892 -1.546801,1.724092 -0.359798,0.64612 -0.539934,1.384204 -0.539934,2.216149 0,0.83147 0.193883,1.601789 0.580702,2.310956 0.387766,0.709168 0.936234,1.325897 1.644927,1.84924 0.709642,0.522869 1.560548,0.931493 2.553667,1.2254 0.992644,0.292958 2.100482,0.439911 3.322563,0.439911 1.342488,0 2.537075,-0.181084 3.584709,-0.542779 1.047634,-0.362168 1.928407,-0.841425 2.643257,-1.438244 0.71439,-0.59682 1.25811,-1.286551 1.62881,-2.069195 0.3707,-0.782645 0.55653,-1.589465 0.55653,-2.420935 h -3.15902 c 0,0.596345 -0.10619,1.149553 -0.31903,1.6582 -0.21285,0.508648 -0.537564,0.948559 -0.974157,1.320682 -0.436594,0.37165 -0.981742,0.660342 -1.636869,0.865602 -0.654653,0.20526 -1.429238,0.308128 -2.32423,0.308128 -0.840003,0 -1.571451,-0.0877 -2.19292,-0.264042 -0.621944,-0.17587 -1.135332,-0.418106 -1.539216,-0.726707 -0.40341,-0.308128 -0.703479,-0.672192 -0.899733,-1.092668 -0.196727,-0.42095 -0.294854,-0.880771 -0.294854,-1.379463 0,-0.450341 0.10666,-0.860862 0.319031,-1.232511 0.213319,-0.372123 0.542778,-0.714382 0.990748,-1.027724 0.447022,-0.312868 1.022984,-0.601086 1.726463,-0.865601 0.703953,-0.264042 1.5468,-0.518129 2.529016,-0.763209 1.352917,-0.342258 2.520958,-0.721492 3.5027,-1.136753 0.981741,-0.41621 1.792351,-0.887882 2.430891,-1.415965 0.63806,-0.528557 1.11258,-1.120636 1.42402,-1.775763 0.31097,-0.6556007 0.46646,-1.3993732 0.46646,-2.2303696 0,-0.870816 -0.19673,-1.6582004 -0.58971,-2.3626275 C 102.78246,4.8463449 102.22309,4.244785 101.49781,3.7460924 100.77158,3.2469257 99.898863,2.8629513 98.87825,2.5941693 97.858111,2.3249132 96.720409,2.1902851 95.465619,2.1902851 c -0.730974,0 -1.461947,0.061151 -2.193395,0.1834545 -0.730973,0.1223029 -1.431608,0.3057573 -2.102378,0.5503632 -0.671244,0.2446059 -1.293662,0.5479931 -1.866779,0.9101615 -0.572643,0.3616944 -1.07181,0.78217 -1.497026,1.2619009 -0.42569,0.4787829 -0.758942,1.016821 -0.998333,1.6136405 -0.24034,0.5968194 -0.360273,1.2524201 -0.360273,1.966328 h 3.159019 c 0,-0.7333437 0.160701,-1.362398 0.482575,-1.8852668 0.321875,-0.5238169 0.75278,-0.9566176 1.293188,-1.2988762 0.540408,-0.3427327 1.161878,-0.5939752 1.865831,-0.7556237 0.703953,-0.1611744 1.442511,-0.2422357 2.217571,-0.2422357 1.658674,0 2.930056,0.3033872 3.813671,0.9101615 0.88409,0.6063003 1.32637,1.4330303 1.32637,2.479716"
       style="fill:#000000;fill-opacity:1;fill-rule:nonzero;stroke:none;stroke-width:0.47404242"
       id="path315"
       inkscape:connector-curvature="0" /><path
       d="m 113.07843,4.4062439 c 0.53472,0 1.04763,0.078217 1.53921,0.234651 0.49064,0.156434 0.92439,0.3716492 1.30078,0.6456458 0.37639,0.2739965 0.68214,0.5991896 0.91679,0.9760533 0.23466,0.3763897 0.37402,0.7850143 0.41764,1.2249257 h 2.86416 c -0.0436,-0.703953 -0.2593,-1.3766192 -0.64659,-2.0175246 -0.3873,-0.6409054 -0.89784,-1.2031197 -1.53021,-1.687117 -0.63332,-0.4844714 -1.36667,-0.870816 -2.20193,-1.1595078 -0.83431,-0.2882178 -1.72125,-0.4328007 -2.65985,-0.4328007 -1.33111,0 -2.49015,0.212845 -3.47805,0.6380611 -0.98743,0.4256901 -1.808,1.0002295 -2.46265,1.7245663 -0.65513,0.7233888 -1.14387,1.5648141 -1.46527,2.5238019 -0.32235,0.9585138 -0.48305,1.9710685 -0.48305,3.0376641 v 0.616255 c 0,1.066121 0.1607,2.078676 0.48305,3.037664 0.3214,0.95804 0.81014,1.799465 1.46527,2.523328 0.65465,0.724337 1.47285,1.298876 2.45459,1.724566 0.98222,0.42569 2.13841,0.638535 3.46999,0.638535 1.03673,0 1.97771,-0.146953 2.82387,-0.440385 0.84522,-0.293906 1.57619,-0.697317 2.19292,-1.210705 0.61673,-0.513387 1.09931,-1.122532 1.44868,-1.826959 0.34889,-0.704427 0.54562,-1.462421 0.58923,-2.274456 h -2.86416 c -0.0436,0.489212 -0.17256,0.946189 -0.38493,1.371879 -0.21284,0.42569 -0.49916,0.79734 -0.85896,1.115422 -0.36027,0.317608 -0.78833,0.569799 -1.28513,0.755624 -0.49632,0.185824 -1.05048,0.278737 -1.66152,0.278737 -0.9386,0 -1.71603,-0.166389 -2.33229,-0.498693 -0.61673,-0.332778 -1.11305,-0.770319 -1.48991,-1.313572 -0.37639,-0.542778 -0.64043,-1.154293 -0.79355,-1.83407 -0.15312,-0.680251 -0.22896,-1.362398 -0.22896,-2.046915 v -0.616255 c 0,-0.7044272 0.0758,-1.3970032 0.22896,-2.076306 0.15312,-0.6802509 0.41479,-1.2893954 0.78596,-1.8269595 0.3707,-0.5385122 0.8675,-0.9741572 1.48944,-1.3059869 0.62195,-0.3327778 1.40744,-0.4991667 2.35647,-0.4991667"
       style="fill:#000000;fill-opacity:1;fill-rule:nonzero;stroke:none;stroke-width:0.47404242"
       id="path317"
       inkscape:connector-curvature="0" /><path
       inkscape:connector-curvature="0"
       id="path319"
       style="fill:#000000;fill-opacity:1;fill-rule:nonzero;stroke:none;stroke-width:0.47404242"
       d="m 125.48526,2.4840966 h -3.02819 V 18.3612 h 3.02819 z" /><path
       d="m 125.75119,22.360127 c 0,0.984586 -0.79828,1.782873 -1.78287,1.782873 -0.98411,0 -1.7824,-0.798287 -1.7824,-1.782873 0,-0.984586 0.79829,-1.7824 1.7824,-1.7824 0.98459,0 1.78287,0.797814 1.78287,1.7824"
       style="fill:#000000;fill-opacity:1;fill-rule:nonzero;stroke:none;stroke-width:0.47404242"
       id="path321"
       inkscape:connector-curvature="0" /><path
       d="M 152.17554,4.9152232 H 163.4696 V 2.611377 h -14.45261 v 21.658999 h 3.15855 z"
       style="fill:#000000;fill-opacity:1;fill-rule:nonzero;stroke:none;stroke-width:0.47404242"
       id="path323"
       inkscape:connector-curvature="0" /><path
       d="m 170.90808,4.6805248 c 0.54563,0 1.05807,0.068262 1.53874,0.2052604 0.48021,0.1369983 0.91633,0.3157123 1.30931,0.5356679 0.39251,0.2199557 0.73382,0.4721463 1.02298,0.7556237 0.28869,0.2834774 0.51576,0.5773837 0.67931,0.8807708 v 3.2576194 h -2.52096 c -1.735,0 -3.07132,-0.24271 -4.00993,-0.7267069 -0.9386,-0.4839973 -1.40743,-1.2154447 -1.40743,-2.1933943 0,-0.3820782 0.0706,-0.7390321 0.21237,-1.0713359 0.14221,-0.3327778 0.3579,-0.6190994 0.64707,-0.8584908 0.28869,-0.2398655 0.64328,-0.4309046 1.06375,-0.5721692 0.41953,-0.1422128 0.90827,-0.2128451 1.46479,-0.2128451 m 5.02485,-2.0691952 c -0.10903,0.1953055 -0.19625,0.4427557 -0.26167,0.7409283 -0.0654,0.2986468 -0.12041,0.6091446 -0.16402,0.9319675 -0.28348,-0.2640417 -0.60298,-0.5162322 -0.95709,-0.7556237 -0.35458,-0.2398654 -0.74282,-0.4498662 -1.16235,-0.6309505 -0.42,-0.1815582 -0.87556,-0.3228228 -1.36667,-0.4256901 -0.4911,-0.1028672 -1.00971,-0.1540637 -1.55533,-0.1540637 -0.90542,0 -1.72599,0.1223029 -2.46265,0.3669088 -0.73714,0.2446059 -1.36477,0.5769096 -1.8829,0.9978593 -0.51765,0.4204756 -0.91916,0.9172721 -1.20312,1.4894413 -0.28347,0.5721692 -0.42521,1.1860542 -0.42521,1.8411808 0,0.8513802 0.18487,1.6017894 0.55652,2.2526497 0.37071,0.6503862 0.90258,1.1960087 1.5961,1.6363947 0.69258,0.439911 1.53021,0.772215 2.51196,0.997385 0.98221,0.22517 2.07867,0.337518 3.29032,0.337518 h 3.0116 v 1.24768 c 0,0.948559 -0.31619,1.704182 -0.94951,2.266871 -0.63285,0.562688 -1.56576,0.843795 -2.79875,0.843795 -0.56743,0 -1.08603,-0.06874 -1.55533,-0.20526 -0.46883,-0.136998 -0.86987,-0.320453 -1.20265,-0.550363 -0.33277,-0.229911 -0.59208,-0.496797 -0.77743,-0.79971 -0.18582,-0.303387 -0.27826,-0.62147 -0.27826,-0.953773 h -3.0443 c 0,0.567429 0.16592,1.130117 0.49869,1.687117 0.33278,0.557948 0.80493,1.059485 1.41644,1.50461 0.61057,0.444652 1.35007,0.806821 2.2171,1.085558 0.86797,0.279211 1.83596,0.418579 2.9054,0.418579 0.96041,0 1.84735,-0.109978 2.66033,-0.330408 0.81251,-0.219955 1.50793,-0.552733 2.08674,-0.997859 0.57833,-0.445126 1.03104,-1.000229 1.35813,-1.665311 0.32756,-0.665555 0.49158,-1.443459 0.49158,-2.333237 V 6.0742096 c 0,-0.5380382 0.0517,-1.1030968 0.15548,-1.6947017 0.10335,-0.592079 0.25883,-1.1030967 0.46599,-1.5335273 v -0.234651 z"
       style="fill:#000000;fill-opacity:1;fill-rule:nonzero;stroke:none;stroke-width:0.47404242"
       id="path325"
       inkscape:connector-curvature="0" /><path
       d="m 193.21728,10.681949 c 0,0.792599 -0.0825,1.538268 -0.24603,2.237955 -0.16355,0.699212 -0.42806,1.313571 -0.79355,1.841655 -0.36548,0.528083 -0.84332,0.946662 -1.43208,1.254316 -0.58923,0.308127 -1.30978,0.462665 -2.16021,0.462665 -0.557,0 -1.05949,-0.06399 -1.50651,-0.191039 -0.44749,-0.127043 -0.84806,-0.303387 -1.20264,-0.528083 -0.35506,-0.225644 -0.66319,-0.489212 -0.92486,-0.792599 -0.26167,-0.303387 -0.48589,-0.630951 -0.67172,-0.983164 V 7.1162022 c 0.1972,-0.3522135 0.42901,-0.6797768 0.6959,-0.983164 0.26736,-0.3033871 0.57833,-0.5674288 0.93339,-0.7925989 0.35411,-0.2246961 0.75562,-0.4010399 1.20264,-0.5280833 0.44702,-0.1270433 0.94951,-0.190565 1.50603,-0.190565 0.8182,0 1.51647,0.1516935 2.09527,0.4546067 0.57833,0.3029131 1.05238,0.7143819 1.42402,1.2329843 0.37071,0.5181284 0.64328,1.1272729 0.8182,1.8264855 0.17445,0.6992126 0.26215,1.4458294 0.26215,2.2379545 z m 3.02771,-0.308127 c 0,-1.1642484 -0.15312,-2.2379545 -0.4584,-3.2206445 -0.30576,-0.983638 -0.75278,-1.8345442 -1.34202,-2.5536665 -0.58923,-0.7191224 -1.30978,-1.2789665 -2.16068,-1.6800064 -0.85091,-0.4010399 -1.82222,-0.6015598 -2.91299,-0.6015598 -1.16804,0 -2.17728,0.1834544 -3.02866,0.5503632 -0.85091,0.3669089 -1.57098,0.8921479 -2.16069,1.5771392 L 184.0346,2.611377 h -2.78215 v 21.658999 h 3.02723 v -7.527794 c 0.58971,0.655127 1.29888,1.159034 2.12845,1.511247 0.8291,0.352214 1.80516,0.528083 2.92958,0.528083 1.11306,0 2.09764,-0.195779 2.95471,-0.586864 0.85612,-0.391085 1.57667,-0.941448 2.16021,-1.650616 0.58402,-0.709167 1.0282,-1.560548 1.33396,-2.553666 0.30528,-0.992645 0.4584,-2.095742 0.4584,-3.308817 z"
       style="fill:#000000;fill-opacity:1;fill-rule:nonzero;stroke:none;stroke-width:0.47404242"
       id="path327"
       inkscape:connector-curvature="0" /><path
       d="m 147.31768,22.487644 c 0,0.984586 -0.79829,1.7824 -1.7824,1.7824 -0.98459,0 -1.78287,-0.797814 -1.78287,-1.7824 0,-0.984586 0.79828,-1.782873 1.78287,-1.782873 0.98411,0 1.7824,0.798287 1.7824,1.782873"
       style="fill:#000000;fill-opacity:1;fill-rule:nonzero;stroke:none;stroke-width:0.47404242"
       id="path329"
       inkscape:connector-curvature="0" /><path
       inkscape:connector-curvature="0"
       id="path331"
       style="fill:#000000;fill-opacity:1;fill-rule:nonzero;stroke:none;stroke-width:0.47404242"
       d="m 147.04928,2.611614 h -3.02819 v 15.877103 h 3.02819 z" /><g
       aria-label="F"
       transform="matrix(0.75632062,0,0,-0.75632062,19.224856,380.79352)"
       style="font-style:normal;font-variant:normal;font-weight:900;font-stretch:normal;font-size:40px;line-height:1.25;font-family:Lato;-inkscape-font-specification:'Lato Heavy';letter-spacing:0px;word-spacing:0px;fill:#000000;fill-opacity:1;stroke:none"
       id="flowRoot339"><path
         d="m 161.95836,471.54781 v 3.16 h -13.76 v 10.02 h 11.76 v 3.16 h -11.76 v 12.32 h -3.9 v -28.66 z"
         style="font-style:normal;font-variant:normal;font-weight:normal;font-stretch:normal;font-family:Lato;-inkscape-font-specification:Lato;fill:#000000"
         id="path86" /></g><path
       style="fill:#91d342;fill-opacity:1;stroke-width:0.21923523"
       d="m 141.8777,110.31015 c -2.81023,0 -5.50597,-0.85181 -7.7971,-2.46375 -1.97923,-1.39245 -3.53138,-3.25893 -4.53122,-5.43583 -1.08137,-0.23184 -3.00007,-0.69093 -5.03134,-1.40609 -4.38648,-1.544248 -7.04803,-3.499648 -7.91052,-5.811608 -0.32833,-0.88022 -0.4918,-2.25901 0.59715,-3.82749 1.94147,-2.79648 6.94292,-4.61886 9.75115,-5.45632 1.44344,-0.43054 2.95022,-0.793192 4.48476,-1.100016 V 75.097524 L 121.79876,57.62034 C 110.27861,36.739507 109.95554,36.105674 109.95554,34.371176 c 0,-2.603212 1.68205,-5.274708 4.20053,-6.66975 1.11719,-0.618819 1.32632,-0.652115 4.56948,-0.769324 5.11193,-0.184753 40.73582,-0.194582 45.38192,-0.0123 3.61682,0.141885 4.16039,0.213038 5.01906,0.660006 2.55382,1.329389 4.40824,4.061969 4.40824,6.496213 0,1.231502 -0.13422,1.634617 -1.39517,4.186868 -1.44718,2.929192 -3.28248,6.303772 -13.75492,25.294775 l -6.22564,11.289797 v 9.930156 c 1.5891,0.312779 3.14919,0.686205 4.64191,1.131445 2.80813,0.83756 7.80968,2.65974 9.75115,5.45632 1.08865,1.56847 0.92566,2.94716 0.59714,3.82749 -0.86249,2.31193 -3.52413,4.26734 -7.91051,5.811598 -2.03137,0.71516 -3.94997,1.17415 -5.03135,1.4061 -0.99983,2.17669 -2.55199,4.04347 -4.53123,5.43582 -2.29122,1.61194 -4.98832,2.46375 -7.79845,2.46375 z m 0,-3.32736 c 3.93924,0 7.54741,-2.30363 9.23599,-5.81296 -0.87784,-0.91342 -3.3818,-2.763018 -9.23599,-2.763018 -4.11945,0 -6.54169,0.91885 -7.84902,1.690328 -0.66274,0.39103 -1.10501,0.77694 -1.3856,1.07269 1.68849,3.50942 5.29538,5.81296 9.23462,5.81296 z m -11.85551,-7.876338 c 0.4295,-0.4908 1.06084,-1.08116 1.96498,-1.66027 2.4525,-1.57107 5.78015,-2.36809 9.89053,-2.36809 4.11038,0 7.43803,0.79692 9.89053,2.36809 0.90424,0.57921 1.53685,1.16956 1.96635,1.66027 1.02536,-0.22707 2.70399,-0.64173 4.43694,-1.25443 3.2453,-1.14745 5.3814,-2.54061 5.85943,-3.82201 0.0336,-0.0891 0.11147,-0.29883 -0.21317,-0.76661 -1.15493,-1.66346 -4.8731,-3.24201 -7.9679,-4.165 -4.30833,-1.2848 -9.40121,-2.02238 -13.97218,-2.02238 -9.93676,0 -19.9523,3.32623 -21.93872,6.18738 -0.32454,0.46768 -0.24646,0.67603 -0.21317,0.76523 0.47814,1.28152 2.61287,2.67457 5.85807,3.82202 1.73294,0.61271 3.41316,1.02873 4.43831,1.2558 z m -0.78846,-3.96824 a 1.6209076,1.6209076 0 0 1 -1.62063,-1.62064 1.6209076,1.6209076 0 0 1 1.62063,-1.622 1.6209076,1.6209076 0 0 1 1.62064,1.622 1.6209076,1.6209076 0 0 1 -1.62064,1.62064 z m 25.28794,0 a 1.6209076,1.6209076 0 0 1 -1.62063,-1.62064 1.6209076,1.6209076 0 0 1 1.62063,-1.622 1.6209076,1.6209076 0 0 1 1.622,1.622 1.6209076,1.6209076 0 0 1 -1.622,1.62064 z m -12.64397,-2.59357 a 1.6209076,1.6209076 0 0 1 -1.62063,-1.62063 1.6209076,1.6209076 0 0 1 1.62063,-1.622 1.6209076,1.6209076 0 0 1 1.622,1.622 1.6209076,1.6209076 0 0 1 -1.622,1.62063 z m -8.0253,-8.163304 c 2.67694,-0.410783 5.40012,-0.632671 8.02667,-0.632671 0.8973,0 1.80762,0.0338 2.722,0.08335 0.0128,-6.841342 0.0755,-8.267497 0.3389,-8.530889 0.48636,-0.48635 1.10776,-0.428176 1.50721,0.14211 0.25846,0.369022 0.32169,1.874634 0.33479,8.551388 0.95336,0.09087 1.90683,0.202124 2.85593,0.342981 v -11.25973 l 8.55822,-15.887972 c 10.69613,-19.853849 10.57344,-19.605233 10.69401,-21.271881 0.113,-1.562331 -0.34039,-2.943164 -1.33641,-4.07755 -1.05817,-1.205203 -2.09775,-1.610214 -4.72526,-1.84201 -2.98406,-0.263216 -31.57428,-0.429701 -38.5113,-0.224099 -4.774,0.141514 -5.34669,0.199899 -6.16552,0.625843 -1.32289,0.688146 -2.20778,1.501925 -2.88326,2.650954 -0.50825,0.86458 -0.59851,1.267157 -0.59851,2.663255 0,1.932956 -1.04221,-0.162343 11.33078,22.779102 l 7.85175,14.558395 z m 15.15419,-16.366242 c -0.36034,0 -1.30767,-0.391375 -2.14536,-0.886836 -5.50606,-3.256642 -8.88611,-4.102925 -12.66174,-3.167487 -0.95506,0.236637 -1.84896,0.387164 -1.98548,0.334789 -0.25925,-0.09949 -1.54696,-2.412681 -7.73151,-13.892925 -6.39912,-11.878469 -6.41548,-11.912849 -6.41012,-13.21379 0.006,-1.366351 0.54212,-2.646477 1.51952,-3.623887 1.10967,-1.109676 1.93339,-1.451503 3.84662,-1.597405 0.96463,-0.0736 10.09087,-0.124037 20.27982,-0.112053 l 18.52526,0.0205 1.4963,0.755661 c 1.96393,0.991479 2.5594,1.703706 2.5594,3.056798 0,0.570237 -0.20701,1.653053 -0.46187,2.40772 -0.5834,1.72755 -3.91092,8.45756 -8.52132,17.239421 -5.70499,10.866883 -6.89158,12.679494 -8.30952,12.679494 z M 132.82208,57.476859 c 0.54649,0.0056 1.09057,-0.120679 1.58921,-0.37988 0.79758,-0.414834 1.38547,-1.115412 1.65617,-1.973185 0.008,-0.02603 0.0155,-0.05276 0.0232,-0.07925 l 0.008,-0.02732 c 0.005,-0.01642 0.008,-0.03278 0.0136,-0.04919 0.002,-0.0047 0.004,-0.01179 0.004,-0.01776 10e-5,-7.76e-4 -4.5e-4,-0.0032 0,-0.0041 0.19894,-0.622338 0.14491,-1.3657 0.082,-2.225983 -0.0784,-1.068411 -0.1685,-2.279338 0.22957,-3.540532 0.39748,-1.25746 1.16314,-2.191527 1.83791,-3.015808 0.54863,-0.670375 1.02228,-1.248811 1.22025,-1.882994 1.7e-4,-7.7e-4 0,-0.0032 0,-0.0041 0.002,-0.0047 0.003,-0.0062 0.004,-0.01093 v -0.0027 c 0.006,-0.01802 0.013,-0.03411 0.0191,-0.05192 l 0.0109,-0.02733 c 0.009,-0.02612 0.0175,-0.05323 0.0259,-0.07925 0.55874,-1.770032 -0.4258,-3.664655 -2.19593,-4.223768 -0.85741,-0.270792 -1.77003,-0.190734 -2.5676,0.224107 -0.79782,0.414695 -1.38687,1.11465 -1.65753,1.971821 -0.008,0.0263 -0.0155,0.05412 -0.0232,0.08062 l -0.007,0.02596 c -0.005,0.01679 -0.01,0.03395 -0.0136,0.05055 -0.002,0.0047 -0.004,0.0108 -0.004,0.0164 -7.6e-4,0.0019 -9.3e-4,0.0041 -9.3e-4,0.0041 -0.23431,0.74159 -0.16802,1.55064 -0.0984,2.406355 0.0814,1.001512 0.1732,2.136046 -0.21316,3.36016 -0.39718,1.256382 -1.15985,2.188833 -1.83381,3.011707 -0.54928,0.670935 -1.02437,1.251512 -1.22299,1.888466 -0.002,0.0047 -0.004,0.0082 -0.004,0.0123 v 0.0027 c -0.007,0.01763 -0.013,0.03665 -0.0191,0.05466 l -0.0109,0.02596 c -0.008,0.02575 -0.0165,0.05059 -0.0246,0.07653 v 0.0014 c -0.20312,0.643117 -0.20935,1.316851 -0.0246,1.949956 0.0612,0.21073 0.14372,0.418465 0.24733,0.617644 0.29968,0.576093 0.74788,1.042727 1.29678,1.359641 0.2114,0.122044 0.43781,0.221084 0.67641,0.296525 0.32144,0.101497 0.6505,0.153312 0.97839,0.157146 z m 17.50179,-0.813051 c 0.80771,0.03573 1.58157,-0.244956 2.17815,-0.791188 0.5966,-0.546204 0.94563,-1.292399 0.98113,-2.100267 0.0355,-0.808083 -0.24656,-1.581704 -0.79255,-2.178156 -0.54622,-0.596598 -1.29082,-0.944128 -2.09891,-0.97976 -0.80794,-0.03591 -1.58157,0.244977 -2.17815,0.791188 -0.59684,0.546099 -0.94524,1.292322 -0.98113,2.100266 -0.0354,0.807853 0.24521,1.581704 0.79119,2.178156 0.21302,0.2326 0.45608,0.427518 0.72149,0.580752 0.41573,0.240031 0.8859,0.377208 1.37878,0.399009 z m -9.09525,-3.017171 v -0.0014 c 0.71164,0.0486 1.44048,-0.168394 2.02239,-0.658641 0.0301,-0.02556 0.0582,-0.05239 0.0874,-0.07926 0.017,-0.01576 0.034,-0.03033 0.0506,-0.04646 l 0.0177,-0.0164 c 0.01,-0.0099 0.0213,-0.02008 0.0314,-0.03007 0.005,-0.0047 0.007,-0.0084 0.0109,-0.0123 0,-3.08e-4 -3e-4,-0.0018 0,-0.0027 0.40765,-0.370316 0.68139,-0.934494 0.99753,-1.58784 0.39138,-0.8097 0.83542,-1.728327 1.65343,-2.477418 0.81603,-0.746782 1.76252,-1.104875 2.59903,-1.421131 0.68183,-0.257752 1.27162,-0.479725 1.68349,-0.859515 l 0.0109,-0.0096 c 0.004,-0.0037 0.007,-0.004 0.0109,-0.0068 0.005,-0.0047 0.01,-0.01037 0.015,-0.01504 0.004,-0.0037 0.005,-0.0054 0.01,-0.0082 l 0.0191,-0.01503 c 0.0169,-0.01474 0.0324,-0.0298 0.0492,-0.04509 7.6e-4,-3.22e-4 0.004,9.7e-5 0.004,0 0.21006,-0.19191 0.38631,-0.411119 0.52746,-0.649079 0.18804,-0.317025 0.31196,-0.669536 0.36484,-1.039887 0.0132,-0.09253 0.0213,-0.186865 0.0259,-0.281491 0.0335,-0.757682 -0.22998,-1.482216 -0.742,-2.04151 -0.0328,-0.03591 -0.0668,-0.07128 -0.10111,-0.105219 -0.005,-0.0047 -0.007,-0.0063 -0.0123,-0.01093 -0.0306,-0.02994 -0.0615,-0.059 -0.0929,-0.08745 v -0.0014 c -0.48623,-0.434165 -1.10252,-0.68413 -1.76275,-0.713298 -0.65879,-0.02892 -1.2927,0.165169 -1.81468,0.553425 -0.002,7.62e-4 -0.003,0.0032 -0.004,0.0041 -0.033,0.02472 -0.065,0.04912 -0.097,0.07516 -0.005,0.0047 -0.0123,0.0096 -0.0177,0.01367 -0.0369,0.03069 -0.072,0.06287 -0.10795,0.09565 -0.0171,0.01558 -0.0349,0.03187 -0.052,0.04783 l -0.0164,0.01639 c -0.0104,0.0099 -0.0213,0.0199 -0.0314,0.03007 -0.005,0.0047 -0.007,0.0071 -0.0109,0.01093 -7.6e-4,7.55e-4 -0.002,0.0018 -0.003,0.0027 -0.48347,0.443064 -0.77567,1.059302 -1.08499,1.712193 -0.36119,0.762314 -0.76905,1.626229 -1.56324,2.353064 -0.81493,0.746496 -1.76268,1.104506 -2.59767,1.419767 -0.68279,0.257801 -1.27143,0.480859 -1.68486,0.862243 -0.005,0.0047 -0.011,0.0084 -0.0164,0.0123 -0.0106,0.0093 -0.0221,0.01673 -0.0328,0.02596 l -0.0177,0.0164 c -0.0173,0.01511 -0.0336,0.03117 -0.0506,0.04646 -0.2096,0.192168 -0.38782,0.41137 -0.52882,0.649078 -0.21171,0.356911 -0.34175,0.757682 -0.38125,1.179261 -0.005,0.04702 -0.007,0.09334 -0.01,0.140752 -0.0335,0.757668 0.22975,1.483434 0.742,2.042875 0.2007,0.219216 0.4278,0.398588 0.67231,0.539754 0.37937,0.219034 0.80146,0.343876 1.22845,0.373045 z"
       id="path635"
       inkscape:connector-curvature="0" /></g></svg>